<svg xmlns="http://www.w3.org/2000/svg" xmlns:xlink="http://www.w3.org/1999/xlink" width="500" zoomAndPan="magnify" viewBox="0 0 375 374.999991" height="500" preserveAspectRatio="xMidYMid meet" version="1.0"><defs><g/></defs><rect x="-37.5" width="450" fill="#ffffff" y="-37.499999" height="449.999989" fill-opacity="1"/><rect x="-37.5" width="450" fill="#ff5858" y="-37.499999" height="449.999989" fill-opacity="1"/><g fill="#ffffff" fill-opacity="1"><g transform="translate(95.681475, 205.20296)"><g><path d="M 23.332031 -11.046875 L 22.734375 -11.046875 C 22.554688 -4.539062 19.253906 -2.519531 17.234375 -2.519531 C 15.082031 -2.519531 14.394531 -3.757812 14.394531 -6.691406 L 14.394531 -29.566406 L 22.734375 -29.566406 L 22.734375 -30.160156 L 14.394531 -30.160156 C 14.394531 -34.425781 10.957031 -37.863281 6.691406 -37.863281 L 4.308594 -37.863281 L 4.308594 -30.160156 L 0.273438 -30.160156 L 0.273438 -29.566406 L 4.308594 -29.566406 L 4.308594 -9.71875 C 4.308594 -2.15625 9.351562 0 13.84375 0 C 18.289062 0 23.332031 -3.023438 23.332031 -11.046875 Z M 23.332031 -11.046875 "/></g></g></g><g fill="#ffffff" fill-opacity="1"><g transform="translate(116.948442, 205.20296)"><g><path d="M 24.113281 -29.613281 L 24.113281 -30.207031 C 17.464844 -30.207031 14.394531 -26.21875 13.203125 -20.71875 C 13.203125 -25.625 9.214844 -29.613281 4.308594 -29.613281 L 3.117188 -29.613281 L 3.117188 -8.894531 C 3.117188 -3.988281 7.105469 0 12.011719 0 L 13.203125 0 L 13.203125 -14.257812 C 13.203125 -22.554688 15.492188 -29.613281 24.113281 -29.613281 Z M 24.113281 -29.613281 "/></g></g></g><g fill="#ffffff" fill-opacity="1"><g transform="translate(138.582088, 205.20296)"><g><path d="M 22.917969 -30.207031 L 22.597656 -30.207031 L 22.597656 -15.402344 C 22.597656 -11.6875 21.773438 -2.796875 16.457031 -2.796875 C 14.074219 -2.796875 12.972656 -4.445312 12.972656 -7.929688 L 12.972656 -20.445312 C 12.972656 -25.851562 8.570312 -30.207031 3.207031 -30.207031 L 2.886719 -30.207031 L 2.886719 -10.496094 C 2.886719 -4.171875 6.324219 0 12.605469 0 C 18.929688 0 21.957031 -4.402344 22.917969 -10.679688 L 22.917969 -9.765625 C 22.917969 -4.355469 27.320312 0 32.683594 0 L 32.683594 -20.445312 C 32.683594 -25.851562 28.328125 -30.207031 22.917969 -30.207031 Z M 22.917969 -30.207031 "/></g></g></g><g fill="#e0144c" fill-opacity="1"><g transform="translate(171.501783, 205.20296)"><g><path d="M 28.558594 -30.207031 L 22.09375 -15.953125 C 21.683594 -14.988281 20.765625 -14.53125 19.847656 -14.53125 C 18.929688 -14.53125 18.015625 -14.988281 17.554688 -15.953125 L 15.125 -21.222656 C 12.605469 -26.679688 7.105469 -30.207031 1.054688 -30.207031 L 0.550781 -30.207031 L 15.539062 0 L 15.585938 0 L 29.292969 -30.207031 Z M 28.558594 -30.207031 "/></g></g></g><g fill="#e0144c" fill-opacity="1"><g transform="translate(198.360618, 205.20296)"><g><path d="M 13.613281 -39.789062 C 13.613281 -42.769531 11.414062 -45.242188 8.023438 -45.242188 C 4.722656 -45.242188 2.519531 -42.769531 2.519531 -39.789062 C 2.519531 -36.855469 4.722656 -34.332031 8.023438 -34.332031 C 11.414062 -34.332031 13.613281 -36.855469 13.613281 -39.789062 Z M 3.070312 -29.613281 L 3.070312 -10.085938 C 3.070312 -4.492188 7.5625 0 13.15625 0 L 13.15625 -19.527344 C 13.15625 -25.121094 8.617188 -29.613281 3.070312 -29.613281 Z M 3.070312 -29.613281 "/></g></g></g><g fill="#e0144c" fill-opacity="1"><g transform="translate(211.652289, 205.20296)"><g><path d="M 35.707031 -15.539062 C 35.707031 -25.210938 31.078125 -30.804688 23.789062 -30.804688 C 18.472656 -30.804688 14.667969 -27.550781 13.203125 -21.5 L 13.203125 -31.996094 C 13.203125 -37.542969 8.710938 -42.035156 3.117188 -42.035156 L 3.117188 -9.902344 C 3.117188 -4.445312 7.5625 0 13.019531 0 L 13.019531 -10.128906 C 14.300781 -3.574219 18.152344 0 23.699219 0 C 31.03125 0 35.707031 -5.59375 35.707031 -15.539062 Z M 13.203125 -13.660156 L 13.203125 -17.371094 C 13.660156 -24.066406 16.503906 -28.421875 19.4375 -28.421875 C 22.78125 -28.421875 25.027344 -23.285156 25.027344 -15.539062 C 25.027344 -7.65625 22.78125 -2.382812 19.4375 -2.382812 C 16.503906 -2.382812 13.660156 -6.828125 13.203125 -13.660156 Z M 13.203125 -13.660156 "/></g></g></g><g fill="#e0144c" fill-opacity="1"><g transform="translate(246.11974, 205.20296)"><g><path d="M 31.492188 -11.09375 L 30.941406 -11.09375 C 30.300781 -4.402344 26.21875 -1.648438 21.589844 -1.648438 C 15.722656 -1.648438 12.285156 -5.179688 12.285156 -15.308594 L 31.078125 -15.308594 C 31.355469 -26.3125 24.800781 -30.804688 17.191406 -30.804688 C 8.023438 -30.804688 1.605469 -24.660156 1.605469 -15.449219 C 1.605469 -6.1875 8.527344 0 18.609375 0 C 25.441406 0 30.804688 -3.390625 31.492188 -11.09375 Z M 17.144531 -30.207031 C 21.636719 -30.207031 21.316406 -20.8125 21.316406 -15.859375 L 12.285156 -15.859375 C 12.332031 -25.121094 13.707031 -30.207031 17.144531 -30.207031 Z M 17.144531 -30.207031 "/></g></g></g><g fill="#e0144c" fill-opacity="1"><g transform="translate(148.952404, 234.165174)"><g><path d="M 4.578125 0.125 C 4.015625 0.125 3.488281 0.0195312 3 -0.1875 C 2.519531 -0.40625 2.101562 -0.695312 1.75 -1.0625 C 1.394531 -1.425781 1.113281 -1.859375 0.90625 -2.359375 C 0.695312 -2.859375 0.59375 -3.394531 0.59375 -3.96875 C 0.59375 -4.5625 0.695312 -5.113281 0.90625 -5.625 C 1.125 -6.132812 1.414062 -6.578125 1.78125 -6.953125 C 2.144531 -7.328125 2.570312 -7.617188 3.0625 -7.828125 C 3.550781 -8.046875 4.070312 -8.15625 4.625 -8.15625 C 5.21875 -8.15625 5.773438 -8.03125 6.296875 -7.78125 C 6.816406 -7.53125 7.265625 -7.1875 7.640625 -6.75 L 7.015625 -6.21875 C 6.703125 -6.570312 6.335938 -6.84375 5.921875 -7.03125 C 5.515625 -7.226562 5.070312 -7.328125 4.59375 -7.328125 C 4.144531 -7.328125 3.734375 -7.242188 3.359375 -7.078125 C 2.984375 -6.921875 2.65625 -6.691406 2.375 -6.390625 C 2.101562 -6.097656 1.890625 -5.75 1.734375 -5.34375 C 1.578125 -4.945312 1.5 -4.507812 1.5 -4.03125 C 1.5 -3.550781 1.578125 -3.109375 1.734375 -2.703125 C 1.890625 -2.296875 2.109375 -1.945312 2.390625 -1.65625 C 2.671875 -1.363281 3 -1.128906 3.375 -0.953125 C 3.757812 -0.785156 4.179688 -0.703125 4.640625 -0.703125 C 5.148438 -0.703125 5.609375 -0.800781 6.015625 -1 C 6.421875 -1.207031 6.765625 -1.476562 7.046875 -1.8125 L 7.640625 -1.296875 C 7.265625 -0.859375 6.816406 -0.507812 6.296875 -0.25 C 5.773438 0 5.203125 0.125 4.578125 0.125 Z M 4.578125 0.125 "/></g></g></g><g fill="#e0144c" fill-opacity="1"><g transform="translate(160.736552, 234.165174)"><g><path d="M 4.625 0.125 C 4.070312 0.125 3.550781 0.015625 3.0625 -0.203125 C 2.570312 -0.421875 2.144531 -0.71875 1.78125 -1.09375 C 1.414062 -1.46875 1.125 -1.90625 0.90625 -2.40625 C 0.695312 -2.90625 0.59375 -3.441406 0.59375 -4.015625 C 0.59375 -4.585938 0.695312 -5.125 0.90625 -5.625 C 1.125 -6.132812 1.414062 -6.578125 1.78125 -6.953125 C 2.144531 -7.328125 2.570312 -7.617188 3.0625 -7.828125 C 3.550781 -8.046875 4.070312 -8.15625 4.625 -8.15625 C 5.175781 -8.15625 5.691406 -8.046875 6.171875 -7.828125 C 6.660156 -7.617188 7.085938 -7.328125 7.453125 -6.953125 C 7.816406 -6.578125 8.101562 -6.140625 8.3125 -5.640625 C 8.53125 -5.140625 8.640625 -4.597656 8.640625 -4.015625 C 8.640625 -3.453125 8.53125 -2.921875 8.3125 -2.421875 C 8.101562 -1.921875 7.816406 -1.484375 7.453125 -1.109375 C 7.085938 -0.734375 6.660156 -0.429688 6.171875 -0.203125 C 5.691406 0.015625 5.175781 0.125 4.625 0.125 Z M 4.625 -0.703125 C 5.0625 -0.703125 5.472656 -0.785156 5.859375 -0.953125 C 6.242188 -1.128906 6.570312 -1.363281 6.84375 -1.65625 C 7.125 -1.945312 7.34375 -2.296875 7.5 -2.703125 C 7.65625 -3.109375 7.734375 -3.546875 7.734375 -4.015625 C 7.734375 -4.492188 7.65625 -4.929688 7.5 -5.328125 C 7.34375 -5.734375 7.125 -6.082031 6.84375 -6.375 C 6.570312 -6.675781 6.242188 -6.910156 5.859375 -7.078125 C 5.472656 -7.242188 5.0625 -7.328125 4.625 -7.328125 C 4.175781 -7.328125 3.757812 -7.242188 3.375 -7.078125 C 3 -6.910156 2.671875 -6.675781 2.390625 -6.375 C 2.117188 -6.082031 1.898438 -5.734375 1.734375 -5.328125 C 1.578125 -4.929688 1.5 -4.492188 1.5 -4.015625 C 1.5 -3.546875 1.578125 -3.109375 1.734375 -2.703125 C 1.898438 -2.296875 2.117188 -1.945312 2.390625 -1.65625 C 2.671875 -1.363281 3 -1.128906 3.375 -0.953125 C 3.757812 -0.785156 4.175781 -0.703125 4.625 -0.703125 Z M 4.625 -0.703125 "/></g></g></g><g fill="#e0144c" fill-opacity="1"><g transform="translate(173.576704, 234.165174)"><g><path d="M 1.078125 -8.28125 L 1.3125 -8.28125 L 4.890625 -3.234375 L 8.40625 -8.28125 L 8.640625 -8.28125 L 8.640625 0 L 7.796875 0 L 7.796875 -6.015625 L 4.984375 -1.984375 L 4.734375 -1.984375 L 1.921875 -5.953125 L 1.921875 0 L 1.078125 0 Z M 1.078125 -8.28125 "/></g></g></g><g fill="#e0144c" fill-opacity="1"><g transform="translate(186.896856, 234.165174)"><g><path d="M 1.078125 -8.046875 L 3 -8.046875 C 3.394531 -8.046875 3.765625 -7.984375 4.109375 -7.859375 C 4.453125 -7.742188 4.742188 -7.578125 4.984375 -7.359375 C 5.234375 -7.140625 5.425781 -6.878906 5.5625 -6.578125 C 5.695312 -6.285156 5.765625 -5.960938 5.765625 -5.609375 C 5.765625 -5.265625 5.695312 -4.941406 5.5625 -4.640625 C 5.425781 -4.347656 5.234375 -4.09375 4.984375 -3.875 C 4.742188 -3.65625 4.453125 -3.484375 4.109375 -3.359375 C 3.765625 -3.242188 3.394531 -3.1875 3 -3.1875 L 1.921875 -3.1875 L 1.921875 0 L 1.078125 0 Z M 3 -3.96875 C 3.570312 -3.96875 4.035156 -4.117188 4.390625 -4.421875 C 4.742188 -4.722656 4.921875 -5.125 4.921875 -5.625 C 4.921875 -6.125 4.742188 -6.519531 4.390625 -6.8125 C 4.035156 -7.113281 3.570312 -7.265625 3 -7.265625 L 1.921875 -7.265625 L 1.921875 -3.96875 Z M 3 -3.96875 "/></g></g></g><g fill="#e0144c" fill-opacity="1"><g transform="translate(196.797007, 234.165174)"><g><path d="M 3.421875 -8.28125 L 3.65625 -8.28125 L 6.71875 0 L 5.796875 0 L 5.046875 -2.109375 L 1.984375 -2.109375 L 1.234375 0 L 0.359375 0 Z M 4.765625 -2.890625 L 3.515625 -6.375 L 2.265625 -2.890625 Z M 4.765625 -2.890625 "/></g></g></g><g fill="#e0144c" fill-opacity="1"><g transform="translate(207.477154, 234.165174)"><g><path d="M 1.890625 -6.25 L 1.890625 0 L 1.078125 0 L 1.078125 -8.28125 L 1.3125 -8.28125 L 6.75 -1.78125 L 6.75 -8.046875 L 7.5625 -8.046875 L 7.5625 0.234375 L 7.3125 0.234375 Z M 1.890625 -6.25 "/></g></g></g><g fill="#e0144c" fill-opacity="1"><g transform="translate(219.717302, 234.165174)"><g><path d="M 2.703125 -3.125 L 0.234375 -8.046875 L 1.1875 -8.046875 L 3.1875 -4.0625 L 5.203125 -8.046875 L 6.078125 -8.046875 L 3.546875 -3.125 L 3.546875 0 L 2.703125 0 Z M 2.703125 -3.125 "/></g></g></g></svg>