<svg xmlns="http://www.w3.org/2000/svg" xmlns:xlink="http://www.w3.org/1999/xlink" width="500" zoomAndPan="magnify" viewBox="0 0 375 374.999991" height="500" preserveAspectRatio="xMidYMid meet" version="1.0"><defs><g/></defs><rect x="-37.5" width="450" fill="#ffffff" y="-37.499999" height="449.999989" fill-opacity="1"/><rect x="-37.5" width="450" fill="#ff5858" y="-37.499999" height="449.999989" fill-opacity="1"/><g fill="#ffffff" fill-opacity="1"><g transform="translate(141.862342, 228.409907)"><g><path d="M 51.140625 -24.214844 L 49.835938 -24.214844 C 49.433594 -9.945312 42.199219 -5.527344 37.777344 -5.527344 C 33.054688 -5.527344 31.546875 -8.238281 31.546875 -14.667969 L 31.546875 -64.804688 L 49.835938 -64.804688 L 49.835938 -66.109375 L 31.546875 -66.109375 C 31.546875 -75.453125 24.011719 -82.988281 14.667969 -82.988281 L 9.445312 -82.988281 L 9.445312 -66.109375 L 0.601562 -66.109375 L 0.601562 -64.804688 L 9.445312 -64.804688 L 9.445312 -21.300781 C 9.445312 -4.722656 20.496094 0 30.34375 0 C 40.089844 0 51.140625 -6.632812 51.140625 -24.214844 Z M 51.140625 -24.214844 "/></g></g></g><g fill="#e0144c" fill-opacity="1"><g transform="translate(180.08567, 256.090061)"><g><path d="M 62.59375 -66.210938 L 48.425781 -34.964844 C 47.523438 -32.855469 45.515625 -31.847656 43.503906 -31.847656 C 41.496094 -31.847656 39.484375 -32.855469 38.480469 -34.964844 L 33.15625 -46.519531 C 27.628906 -58.476562 15.574219 -66.210938 2.3125 -66.210938 L 1.207031 -66.210938 L 34.058594 0 L 34.160156 0 L 64.203125 -66.210938 Z M 62.59375 -66.210938 "/></g></g></g><g fill="#e0144c" fill-opacity="1"><g transform="translate(199.150166, 127.132002)"><g><path d="M 3.0625 1.484375 C 2.65625 1.304688 2.304688 1.066406 2.015625 0.765625 C 1.734375 0.472656 1.519531 0.148438 1.375 -0.203125 C 1.238281 -0.566406 1.175781 -0.953125 1.1875 -1.359375 C 1.195312 -1.765625 1.296875 -2.175781 1.484375 -2.59375 C 1.660156 -2.988281 1.894531 -3.328125 2.1875 -3.609375 C 2.488281 -3.898438 2.816406 -4.113281 3.171875 -4.25 C 3.535156 -4.394531 3.921875 -4.460938 4.328125 -4.453125 C 4.742188 -4.453125 5.15625 -4.363281 5.5625 -4.1875 C 5.976562 -4.007812 6.328125 -3.753906 6.609375 -3.421875 C 6.898438 -3.097656 7.113281 -2.734375 7.25 -2.328125 L 6.0625 -1.859375 C 5.988281 -2.128906 5.867188 -2.363281 5.703125 -2.5625 C 5.535156 -2.757812 5.320312 -2.914062 5.0625 -3.03125 C 4.832031 -3.125 4.601562 -3.171875 4.375 -3.171875 C 4.144531 -3.171875 3.925781 -3.128906 3.71875 -3.046875 C 3.507812 -2.960938 3.316406 -2.835938 3.140625 -2.671875 C 2.972656 -2.503906 2.835938 -2.300781 2.734375 -2.0625 C 2.628906 -1.8125 2.566406 -1.566406 2.546875 -1.328125 C 2.535156 -1.085938 2.566406 -0.859375 2.640625 -0.640625 C 2.722656 -0.421875 2.847656 -0.226562 3.015625 -0.0625 C 3.179688 0.101562 3.382812 0.242188 3.625 0.359375 C 3.882812 0.460938 4.144531 0.507812 4.40625 0.5 C 4.664062 0.5 4.914062 0.4375 5.15625 0.3125 L 5.640625 1.453125 C 5.242188 1.660156 4.828125 1.765625 4.390625 1.765625 C 3.953125 1.773438 3.507812 1.679688 3.0625 1.484375 Z M 3.0625 1.484375 "/></g></g></g><g fill="#e0144c" fill-opacity="1"><g transform="translate(210.461866, 132.695243)"><g><path d="M 2.75 1.96875 C 2.382812 1.726562 2.09375 1.4375 1.875 1.09375 C 1.65625 0.757812 1.503906 0.398438 1.421875 0.015625 C 1.347656 -0.359375 1.347656 -0.75 1.421875 -1.15625 C 1.503906 -1.5625 1.664062 -1.945312 1.90625 -2.3125 C 2.144531 -2.675781 2.429688 -2.972656 2.765625 -3.203125 C 3.109375 -3.429688 3.46875 -3.582031 3.84375 -3.65625 C 4.226562 -3.738281 4.617188 -3.742188 5.015625 -3.671875 C 5.410156 -3.609375 5.789062 -3.457031 6.15625 -3.21875 C 6.519531 -2.976562 6.8125 -2.6875 7.03125 -2.34375 C 7.257812 -2 7.414062 -1.632812 7.5 -1.25 C 7.582031 -0.875 7.582031 -0.484375 7.5 -0.078125 C 7.425781 0.316406 7.269531 0.695312 7.03125 1.0625 C 6.789062 1.425781 6.5 1.722656 6.15625 1.953125 C 5.820312 2.191406 5.460938 2.347656 5.078125 2.421875 C 4.691406 2.503906 4.296875 2.507812 3.890625 2.4375 C 3.492188 2.363281 3.113281 2.207031 2.75 1.96875 Z M 3.4375 0.90625 C 3.644531 1.039062 3.863281 1.128906 4.09375 1.171875 C 4.320312 1.210938 4.539062 1.203125 4.75 1.140625 C 4.96875 1.085938 5.171875 0.988281 5.359375 0.84375 C 5.554688 0.707031 5.726562 0.53125 5.875 0.3125 C 6.007812 0.101562 6.101562 -0.113281 6.15625 -0.34375 C 6.21875 -0.582031 6.234375 -0.8125 6.203125 -1.03125 C 6.171875 -1.257812 6.09375 -1.46875 5.96875 -1.65625 C 5.84375 -1.851562 5.675781 -2.019531 5.46875 -2.15625 C 5.269531 -2.289062 5.054688 -2.375 4.828125 -2.40625 C 4.609375 -2.445312 4.382812 -2.4375 4.15625 -2.375 C 3.9375 -2.320312 3.726562 -2.222656 3.53125 -2.078125 C 3.332031 -1.941406 3.164062 -1.769531 3.03125 -1.5625 C 2.882812 -1.34375 2.785156 -1.113281 2.734375 -0.875 C 2.679688 -0.644531 2.675781 -0.421875 2.71875 -0.203125 C 2.757812 0.015625 2.835938 0.21875 2.953125 0.40625 C 3.078125 0.601562 3.238281 0.769531 3.4375 0.90625 Z M 3.4375 0.90625 "/></g></g></g><g fill="#e0144c" fill-opacity="1"><g transform="translate(221.341207, 140.544513)"><g><path d="M 4.65625 -3.90625 L 5.140625 -3.453125 L 4.6875 0.5625 L 8.65625 -0.09375 L 9.140625 0.375 L 4.96875 4.75 L 4.03125 3.84375 L 6.3125 1.453125 L 3.78125 1.84375 L 3.40625 1.5 L 3.703125 -1.03125 L 1.421875 1.359375 L 0.484375 0.46875 Z M 4.65625 -3.90625 "/></g></g></g><g fill="#e0144c" fill-opacity="1"><g transform="translate(231.156872, 150.8155)"><g><path d="M 5.171875 -3.03125 L 6.25 -1.578125 C 6.4375 -1.328125 6.566406 -1.0625 6.640625 -0.78125 C 6.722656 -0.507812 6.753906 -0.242188 6.734375 0.015625 C 6.710938 0.285156 6.628906 0.535156 6.484375 0.765625 C 6.347656 1.003906 6.171875 1.207031 5.953125 1.375 C 5.710938 1.550781 5.460938 1.671875 5.203125 1.734375 C 4.953125 1.796875 4.695312 1.800781 4.4375 1.75 C 4.175781 1.695312 3.921875 1.59375 3.671875 1.4375 C 3.429688 1.289062 3.21875 1.097656 3.03125 0.859375 L 2.703125 0.421875 L 1.171875 1.578125 L 0.40625 0.53125 Z M 4 0.109375 C 4.15625 0.316406 4.335938 0.441406 4.546875 0.484375 C 4.765625 0.535156 4.972656 0.488281 5.171875 0.34375 C 5.359375 0.195312 5.460938 0.015625 5.484375 -0.203125 C 5.503906 -0.421875 5.4375 -0.632812 5.28125 -0.84375 L 4.96875 -1.25 L 3.6875 -0.296875 Z M 4 0.109375 "/></g></g></g><g fill="#e0144c" fill-opacity="1"><g transform="translate(237.779891, 160.497489)"><g><path d="M 6.484375 -0.671875 L 6.859375 0.046875 L 2.609375 4.9375 L 1.984375 3.75 L 2.703125 2.953125 L 1.734375 1.140625 L 0.6875 1.296875 L 0.046875 0.078125 Z M 3.5 2.0625 L 4.75 0.703125 L 2.90625 0.96875 Z M 3.5 2.0625 "/></g></g></g><g fill="#e0144c" fill-opacity="1"><g transform="translate(243.104201, 171.666284)"><g><path d="M 3.953125 0.671875 L 0.59375 1.796875 L 0.21875 0.640625 L 5.953125 -1.265625 L 6.15625 -0.625 L 3.75 3.65625 L 7.109375 2.546875 L 7.5 3.71875 L 1.75 5.625 L 1.53125 4.96875 Z M 3.953125 0.671875 "/></g></g></g><g fill="#e0144c" fill-opacity="1"><g transform="translate(246.71125, 184.407163)"><g><path d="M 2.375 1.421875 L 5.875 -1 L 6.09375 0.390625 L 3.890625 1.859375 L 6.453125 2.578125 L 6.671875 3.90625 L 2.609375 2.6875 L 0.5 3.03125 L 0.28125 1.765625 Z M 2.375 1.421875 "/></g></g></g></svg>