<svg xmlns="http://www.w3.org/2000/svg" xmlns:xlink="http://www.w3.org/1999/xlink" width="500" zoomAndPan="magnify" viewBox="0 0 375 374.999991" height="500" preserveAspectRatio="xMidYMid meet" version="1.0"><defs><g/></defs><rect x="-37.5" width="450" fill="#ffffff" y="-37.499999" height="449.999989" fill-opacity="1"/><rect x="-37.5" width="450" fill="#ff5858" y="-37.499999" height="449.999989" fill-opacity="1"/><g fill="#ffffff" fill-opacity="1"><g transform="translate(40.699488, 205.807779)"><g><path d="M 21.632812 -22.464844 L 20.867188 -22.464844 L 10.015625 -12.589844 L 10.015625 -23.820312 C 10.015625 -28.03125 6.609375 -31.4375 2.363281 -31.4375 L 2.363281 -7.652344 C 2.363281 -3.40625 5.808594 0 10.015625 0 L 10.015625 -11.371094 L 13.773438 -4.136719 C 15.058594 -1.601562 17.703125 0 20.554688 0 L 24.691406 0 L 15.40625 -16.796875 Z M 21.632812 -22.464844 "/></g></g></g><g fill="#ffffff" fill-opacity="1"><g transform="translate(63.581428, 205.807779)"><g><path d="M 10.328125 -30.1875 C 10.328125 -32.445312 8.660156 -34.324219 6.085938 -34.324219 C 3.582031 -34.324219 1.914062 -32.445312 1.914062 -30.1875 C 1.914062 -27.960938 3.582031 -26.046875 6.085938 -26.046875 C 8.660156 -26.046875 10.328125 -27.960938 10.328125 -30.1875 Z M 2.328125 -22.464844 L 2.328125 -7.652344 C 2.328125 -3.40625 5.738281 0 9.980469 0 L 9.980469 -14.816406 C 9.980469 -19.058594 6.539062 -22.464844 2.328125 -22.464844 Z M 2.328125 -22.464844 "/></g></g></g><g fill="#ffffff" fill-opacity="1"><g transform="translate(73.666026, 205.807779)"><g><path d="M 21.632812 -22.464844 L 15.023438 -7.09375 L 11.371094 -15.40625 C 9.492188 -19.683594 5.25 -22.464844 0.589844 -22.464844 L 0.347656 -22.464844 L 11.476562 1.21875 L 8.867188 7.335938 L 9.390625 7.335938 L 22.152344 -22.464844 Z M 21.632812 -22.464844 "/></g></g></g><g fill="#ffffff" fill-opacity="1"><g transform="translate(94.044138, 205.807779)"><g><path d="M 25.214844 -11.789062 C 25.214844 -18.746094 18.988281 -23.371094 13.214844 -23.371094 C 7.476562 -23.371094 1.21875 -18.746094 1.21875 -11.789062 C 1.21875 -4.730469 7.476562 0 13.214844 0 C 18.988281 0 25.214844 -4.730469 25.214844 -11.789062 Z M 9.320312 -11.789062 C 9.320312 -19.371094 10.433594 -22.917969 13.214844 -22.917969 C 15.996094 -22.917969 17.144531 -19.371094 17.144531 -11.789062 C 17.144531 -4.105469 15.996094 -0.453125 13.214844 -0.453125 C 10.433594 -0.453125 9.320312 -4.105469 9.320312 -11.789062 Z M 9.320312 -11.789062 "/></g></g></g><g fill="#ffffff" fill-opacity="1"><g transform="translate(118.317101, 205.807779)"><g><path d="M 21.351562 -12.277344 L 21.351562 -13.839844 L 12.136719 -13.839844 L 12.136719 -23.089844 L 10.570312 -23.089844 L 10.570312 -13.839844 L 1.390625 -13.839844 L 1.390625 -12.277344 L 10.570312 -12.277344 L 10.570312 -3.09375 L 12.136719 -3.09375 L 12.136719 -12.277344 Z M 21.351562 -12.277344 "/></g></g></g><g fill="#e0144c" fill-opacity="1"><g transform="translate(138.914325, 205.807779)"><g/></g></g><g fill="#e0144c" fill-opacity="1"><g transform="translate(141.904754, 205.807779)"><g><path d="M 19.476562 -7.789062 C 19.476562 -16.277344 4.695312 -14.1875 4.695312 -19.648438 C 4.695312 -21.664062 6.78125 -22.917969 9.945312 -22.917969 C 14.535156 -22.917969 17.703125 -20.484375 17.703125 -15.648438 L 18.082031 -15.648438 C 18.082031 -20.796875 14.78125 -23.371094 9.945312 -23.371094 C 4.695312 -23.371094 1.320312 -20.273438 1.320312 -15.824219 C 1.320312 -6.191406 16.101562 -9.078125 16.101562 -3.652344 C 16.101562 -1.53125 14.015625 -0.453125 10.816406 -0.453125 C 5.597656 -0.453125 1.914062 -3.6875 1.914062 -8.414062 L 1.460938 -8.414062 C 1.460938 -3.234375 5.496094 0 10.539062 0 C 15.925781 0 19.476562 -3.339844 19.476562 -7.789062 Z M 19.476562 -7.789062 "/></g></g></g><g fill="#e0144c" fill-opacity="1"><g transform="translate(160.404992, 205.807779)"><g><path d="M 23.890625 -8.414062 L 23.472656 -8.414062 C 22.988281 -3.339844 19.890625 -1.253906 16.378906 -1.253906 C 11.929688 -1.253906 9.320312 -3.929688 9.320312 -11.617188 L 23.578125 -11.617188 C 23.789062 -19.960938 18.8125 -23.371094 13.042969 -23.371094 C 6.085938 -23.371094 1.21875 -18.710938 1.21875 -11.71875 C 1.21875 -4.695312 6.46875 0 14.121094 0 C 19.300781 0 23.371094 -2.574219 23.890625 -8.414062 Z M 13.007812 -22.917969 C 16.414062 -22.917969 16.171875 -15.789062 16.171875 -12.03125 L 9.320312 -12.03125 C 9.355469 -19.058594 10.398438 -22.917969 13.007812 -22.917969 Z M 13.007812 -22.917969 "/></g></g></g><g fill="#e0144c" fill-opacity="1"><g transform="translate(183.35648, 205.807779)"><g><path d="M 18.292969 -22.464844 L 18.292969 -22.917969 C 13.25 -22.917969 10.917969 -19.890625 10.015625 -15.71875 C 10.015625 -19.441406 6.988281 -22.464844 3.269531 -22.464844 L 2.363281 -22.464844 L 2.363281 -6.746094 C 2.363281 -3.027344 5.390625 0 9.113281 0 L 10.015625 0 L 10.015625 -10.816406 C 10.015625 -17.109375 11.753906 -22.464844 18.292969 -22.464844 Z M 18.292969 -22.464844 "/></g></g></g><g fill="#e0144c" fill-opacity="1"><g transform="translate(199.770196, 205.807779)"><g><path d="M 13.042969 -23.371094 C 8.066406 -23.371094 4.730469 -21.421875 3.339844 -17.875 L 3.824219 -17.875 C 5.042969 -20.796875 7.582031 -22.363281 10.539062 -22.363281 C 14.015625 -22.363281 15.40625 -20.414062 15.40625 -16.101562 L 15.40625 -13.074219 C 6.609375 -12.277344 1.183594 -9.5625 1.183594 -4.9375 C 1.183594 -2.46875 2.78125 0 6.640625 0 C 11.128906 0 14.605469 -2.328125 15.578125 -8.136719 L 15.578125 -7.476562 C 15.578125 -3.339844 18.917969 0 23.023438 0 L 23.023438 -13.738281 C 23.058594 -20.414062 18.953125 -23.371094 13.042969 -23.371094 Z M 8.832031 -6.433594 C 8.832031 -9.945312 11.546875 -12.101562 15.40625 -12.726562 L 15.40625 -11.683594 C 15.40625 -5.183594 13.109375 -3.234375 11.371094 -3.234375 C 9.839844 -3.234375 8.832031 -4.3125 8.832031 -6.433594 Z M 8.832031 -6.433594 "/></g></g></g><g fill="#e0144c" fill-opacity="1"><g transform="translate(222.791238, 205.807779)"><g><path d="M 18.015625 0.0703125 C 23.578125 0.0703125 27.125 -4.171875 27.125 -11.71875 C 27.125 -19.058594 23.613281 -23.300781 18.082031 -23.300781 C 13.980469 -23.300781 11.09375 -20.726562 10.015625 -16.066406 C 10.015625 -19.824219 6.988281 -22.847656 3.234375 -22.847656 L 2.363281 -22.847656 L 2.363281 0.0351562 C 2.363281 3.757812 5.425781 6.816406 9.144531 6.816406 L 10.015625 6.816406 L 10.015625 -7.269531 C 11.09375 -2.503906 13.910156 0.0703125 18.015625 0.0703125 Z M 10.015625 -11.71875 C 10.015625 -17.597656 12.378906 -21.492188 14.78125 -21.492188 C 17.320312 -21.492188 19.058594 -17.597656 19.058594 -11.71875 C 19.058594 -5.738281 17.320312 -1.738281 14.78125 -1.738281 C 12.378906 -1.738281 10.015625 -5.738281 10.015625 -11.71875 Z M 10.015625 -11.71875 "/></g></g></g><g fill="#e0144c" fill-opacity="1"><g transform="translate(249.011619, 205.807779)"><g><path d="M 17.597656 -22.917969 C 13.144531 -22.917969 10.917969 -20.136719 10.015625 -15.996094 L 10.015625 -23.820312 C 10.015625 -28.03125 6.609375 -31.4375 2.363281 -31.4375 L 2.363281 -7.652344 C 2.363281 -3.40625 5.808594 0 10.015625 0 L 10.015625 -12.726562 C 10.292969 -17.214844 11.859375 -20.796875 14.675781 -20.796875 C 16.484375 -20.796875 17.320312 -19.542969 17.320312 -16.902344 L 17.320312 -7.652344 C 17.320312 -3.441406 20.761719 0 24.96875 0 L 24.96875 -14.953125 C 24.96875 -19.753906 22.363281 -22.917969 17.597656 -22.917969 Z M 17.597656 -22.917969 "/></g></g></g><g fill="#e0144c" fill-opacity="1"><g transform="translate(273.980085, 205.807779)"><g><path d="M 10.328125 -30.1875 C 10.328125 -32.445312 8.660156 -34.324219 6.085938 -34.324219 C 3.582031 -34.324219 1.914062 -32.445312 1.914062 -30.1875 C 1.914062 -27.960938 3.582031 -26.046875 6.085938 -26.046875 C 8.660156 -26.046875 10.328125 -27.960938 10.328125 -30.1875 Z M 2.328125 -22.464844 L 2.328125 -7.652344 C 2.328125 -3.40625 5.738281 0 9.980469 0 L 9.980469 -14.816406 C 9.980469 -19.058594 6.539062 -22.464844 2.328125 -22.464844 Z M 2.328125 -22.464844 "/></g></g></g><g fill="#e0144c" fill-opacity="1"><g transform="translate(284.064686, 205.807779)"><g><path d="M 14.675781 -20.796875 C 16.484375 -20.796875 17.320312 -19.542969 17.320312 -16.902344 L 17.320312 -6.46875 C 17.320312 -2.886719 20.238281 0 23.789062 0 L 24.96875 0 L 24.96875 -14.953125 C 24.96875 -19.753906 22.363281 -22.917969 17.597656 -22.917969 C 13.144531 -22.917969 10.917969 -20.136719 10.015625 -15.996094 C 10.015625 -19.578125 7.128906 -22.464844 3.546875 -22.464844 L 2.363281 -22.464844 L 2.363281 -6.46875 C 2.363281 -2.886719 5.285156 0 8.832031 0 L 10.015625 0 L 10.015625 -12.726562 C 10.292969 -17.214844 11.859375 -20.796875 14.675781 -20.796875 Z M 14.675781 -20.796875 "/></g></g></g><g fill="#e0144c" fill-opacity="1"><g transform="translate(309.033152, 205.807779)"><g><path d="M 13.042969 -23.371094 C 8.066406 -23.371094 4.730469 -21.421875 3.339844 -17.875 L 3.824219 -17.875 C 5.042969 -20.796875 7.582031 -22.363281 10.539062 -22.363281 C 14.015625 -22.363281 15.40625 -20.414062 15.40625 -16.101562 L 15.40625 -13.074219 C 6.609375 -12.277344 1.183594 -9.5625 1.183594 -4.9375 C 1.183594 -2.46875 2.78125 0 6.640625 0 C 11.128906 0 14.605469 -2.328125 15.578125 -8.136719 L 15.578125 -7.476562 C 15.578125 -3.339844 18.917969 0 23.023438 0 L 23.023438 -13.738281 C 23.058594 -20.414062 18.953125 -23.371094 13.042969 -23.371094 Z M 8.832031 -6.433594 C 8.832031 -9.945312 11.546875 -12.101562 15.40625 -12.726562 L 15.40625 -11.683594 C 15.40625 -5.183594 13.109375 -3.234375 11.371094 -3.234375 C 9.839844 -3.234375 8.832031 -4.3125 8.832031 -6.433594 Z M 8.832031 -6.433594 "/></g></g></g><g fill="#ffffff" fill-opacity="1"><g transform="translate(62.210223, 234.165102)"><g><path d="M 1.078125 -8.28125 L 1.3125 -8.28125 L 4.890625 -3.234375 L 8.40625 -8.28125 L 8.640625 -8.28125 L 8.640625 0 L 7.796875 0 L 7.796875 -6.015625 L 4.984375 -1.984375 L 4.734375 -1.984375 L 1.921875 -5.953125 L 1.921875 0 L 1.078125 0 Z M 1.078125 -8.28125 "/></g></g></g><g fill="#ffffff" fill-opacity="1"><g transform="translate(75.530373, 234.165102)"><g><path d="M 3.90625 0.125 C 3.476562 0.125 3.085938 0.0390625 2.734375 -0.125 C 2.378906 -0.289062 2.070312 -0.519531 1.8125 -0.8125 C 1.5625 -1.113281 1.363281 -1.472656 1.21875 -1.890625 C 1.082031 -2.304688 1.015625 -2.765625 1.015625 -3.265625 L 1.015625 -8.046875 L 1.859375 -8.046875 L 1.859375 -3.34375 C 1.859375 -2.9375 1.90625 -2.566406 2 -2.234375 C 2.101562 -1.898438 2.25 -1.617188 2.4375 -1.390625 C 2.625 -1.160156 2.84375 -0.976562 3.09375 -0.84375 C 3.351562 -0.71875 3.644531 -0.65625 3.96875 -0.65625 C 4.289062 -0.65625 4.582031 -0.71875 4.84375 -0.84375 C 5.101562 -0.976562 5.320312 -1.160156 5.5 -1.390625 C 5.6875 -1.617188 5.828125 -1.898438 5.921875 -2.234375 C 6.023438 -2.566406 6.078125 -2.9375 6.078125 -3.34375 L 6.078125 -8.046875 L 6.90625 -8.046875 L 6.90625 -3.265625 C 6.90625 -2.765625 6.828125 -2.304688 6.671875 -1.890625 C 6.523438 -1.472656 6.316406 -1.113281 6.046875 -0.8125 C 5.785156 -0.519531 5.472656 -0.289062 5.109375 -0.125 C 4.742188 0.0390625 4.34375 0.125 3.90625 0.125 Z M 3.90625 0.125 "/></g></g></g><g fill="#ffffff" fill-opacity="1"><g transform="translate(87.050529, 234.165102)"><g><path d="M 3.015625 0.125 C 2.472656 0.125 1.96875 -0.00390625 1.5 -0.265625 C 1.039062 -0.523438 0.660156 -0.898438 0.359375 -1.390625 L 1.015625 -1.921875 C 1.566406 -1.066406 2.238281 -0.640625 3.03125 -0.640625 C 3.5 -0.640625 3.875 -0.769531 4.15625 -1.03125 C 4.445312 -1.289062 4.59375 -1.628906 4.59375 -2.046875 C 4.59375 -2.421875 4.460938 -2.738281 4.203125 -3 C 3.941406 -3.257812 3.523438 -3.507812 2.953125 -3.75 C 2.222656 -4.019531 1.695312 -4.34375 1.375 -4.71875 C 1.050781 -5.101562 0.890625 -5.554688 0.890625 -6.078125 C 0.890625 -6.390625 0.941406 -6.671875 1.046875 -6.921875 C 1.148438 -7.179688 1.296875 -7.398438 1.484375 -7.578125 C 1.679688 -7.765625 1.910156 -7.90625 2.171875 -8 C 2.441406 -8.101562 2.742188 -8.15625 3.078125 -8.15625 C 3.992188 -8.15625 4.753906 -7.75 5.359375 -6.9375 L 4.703125 -6.40625 C 4.460938 -6.738281 4.207031 -6.984375 3.9375 -7.140625 C 3.675781 -7.296875 3.382812 -7.375 3.0625 -7.375 C 2.65625 -7.375 2.332031 -7.257812 2.09375 -7.03125 C 1.851562 -6.8125 1.734375 -6.515625 1.734375 -6.140625 C 1.734375 -5.785156 1.851562 -5.476562 2.09375 -5.21875 C 2.332031 -4.96875 2.738281 -4.734375 3.3125 -4.515625 C 4.039062 -4.234375 4.578125 -3.894531 4.921875 -3.5 C 5.265625 -3.113281 5.4375 -2.65625 5.4375 -2.125 C 5.4375 -1.789062 5.375 -1.484375 5.25 -1.203125 C 5.132812 -0.929688 4.96875 -0.695312 4.75 -0.5 C 4.53125 -0.300781 4.273438 -0.144531 3.984375 -0.03125 C 3.691406 0.0703125 3.367188 0.125 3.015625 0.125 Z M 3.015625 0.125 "/></g></g></g><g fill="#ffffff" fill-opacity="1"><g transform="translate(96.68668, 234.165102)"><g><path d="M 1.078125 -8.046875 L 1.921875 -8.046875 L 1.921875 0 L 1.078125 0 Z M 1.078125 -8.046875 "/></g></g></g><g fill="#ffffff" fill-opacity="1"><g transform="translate(103.286825, 234.165102)"><g><path d="M 4.578125 0.125 C 4.015625 0.125 3.488281 0.0195312 3 -0.1875 C 2.519531 -0.40625 2.101562 -0.695312 1.75 -1.0625 C 1.394531 -1.425781 1.113281 -1.859375 0.90625 -2.359375 C 0.695312 -2.859375 0.59375 -3.394531 0.59375 -3.96875 C 0.59375 -4.5625 0.695312 -5.113281 0.90625 -5.625 C 1.125 -6.132812 1.414062 -6.578125 1.78125 -6.953125 C 2.144531 -7.328125 2.570312 -7.617188 3.0625 -7.828125 C 3.550781 -8.046875 4.070312 -8.15625 4.625 -8.15625 C 5.21875 -8.15625 5.773438 -8.03125 6.296875 -7.78125 C 6.816406 -7.53125 7.265625 -7.1875 7.640625 -6.75 L 7.015625 -6.21875 C 6.703125 -6.570312 6.335938 -6.84375 5.921875 -7.03125 C 5.515625 -7.226562 5.070312 -7.328125 4.59375 -7.328125 C 4.144531 -7.328125 3.734375 -7.242188 3.359375 -7.078125 C 2.984375 -6.921875 2.65625 -6.691406 2.375 -6.390625 C 2.101562 -6.097656 1.890625 -5.75 1.734375 -5.34375 C 1.578125 -4.945312 1.5 -4.507812 1.5 -4.03125 C 1.5 -3.550781 1.578125 -3.109375 1.734375 -2.703125 C 1.890625 -2.296875 2.109375 -1.945312 2.390625 -1.65625 C 2.671875 -1.363281 3 -1.128906 3.375 -0.953125 C 3.757812 -0.785156 4.179688 -0.703125 4.640625 -0.703125 C 5.148438 -0.703125 5.609375 -0.800781 6.015625 -1 C 6.421875 -1.207031 6.765625 -1.476562 7.046875 -1.8125 L 7.640625 -1.296875 C 7.265625 -0.859375 6.816406 -0.507812 6.296875 -0.25 C 5.773438 0 5.203125 0.125 4.578125 0.125 Z M 4.578125 0.125 "/></g></g></g><g fill="#ffffff" fill-opacity="1"><g transform="translate(115.070971, 234.165102)"><g/></g></g><g fill="#ffffff" fill-opacity="1"><g transform="translate(121.311108, 234.165102)"><g><path d="M 3.421875 -8.28125 L 3.65625 -8.28125 L 6.71875 0 L 5.796875 0 L 5.046875 -2.109375 L 1.984375 -2.109375 L 1.234375 0 L 0.359375 0 Z M 4.765625 -2.890625 L 3.515625 -6.375 L 2.265625 -2.890625 Z M 4.765625 -2.890625 "/></g></g></g><g fill="#ffffff" fill-opacity="1"><g transform="translate(131.991254, 234.165102)"><g><path d="M 1.078125 -8.046875 L 3 -8.046875 C 3.394531 -8.046875 3.765625 -7.984375 4.109375 -7.859375 C 4.453125 -7.742188 4.742188 -7.578125 4.984375 -7.359375 C 5.234375 -7.140625 5.425781 -6.878906 5.5625 -6.578125 C 5.695312 -6.285156 5.765625 -5.960938 5.765625 -5.609375 C 5.765625 -5.265625 5.695312 -4.941406 5.5625 -4.640625 C 5.425781 -4.347656 5.234375 -4.09375 4.984375 -3.875 C 4.742188 -3.65625 4.453125 -3.484375 4.109375 -3.359375 C 3.765625 -3.242188 3.394531 -3.1875 3 -3.1875 L 1.921875 -3.1875 L 1.921875 0 L 1.078125 0 Z M 3 -3.96875 C 3.570312 -3.96875 4.035156 -4.117188 4.390625 -4.421875 C 4.742188 -4.722656 4.921875 -5.125 4.921875 -5.625 C 4.921875 -6.125 4.742188 -6.519531 4.390625 -6.8125 C 4.035156 -7.113281 3.570312 -7.265625 3 -7.265625 L 1.921875 -7.265625 L 1.921875 -3.96875 Z M 3 -3.96875 "/></g></g></g><g fill="#ffffff" fill-opacity="1"><g transform="translate(141.891406, 234.165102)"><g><path d="M 1.078125 -8.046875 L 3 -8.046875 C 3.394531 -8.046875 3.765625 -7.984375 4.109375 -7.859375 C 4.453125 -7.742188 4.742188 -7.578125 4.984375 -7.359375 C 5.234375 -7.140625 5.425781 -6.878906 5.5625 -6.578125 C 5.695312 -6.285156 5.765625 -5.960938 5.765625 -5.609375 C 5.765625 -5.265625 5.695312 -4.941406 5.5625 -4.640625 C 5.425781 -4.347656 5.234375 -4.09375 4.984375 -3.875 C 4.742188 -3.65625 4.453125 -3.484375 4.109375 -3.359375 C 3.765625 -3.242188 3.394531 -3.1875 3 -3.1875 L 1.921875 -3.1875 L 1.921875 0 L 1.078125 0 Z M 3 -3.96875 C 3.570312 -3.96875 4.035156 -4.117188 4.390625 -4.421875 C 4.742188 -4.722656 4.921875 -5.125 4.921875 -5.625 C 4.921875 -6.125 4.742188 -6.519531 4.390625 -6.8125 C 4.035156 -7.113281 3.570312 -7.265625 3 -7.265625 L 1.921875 -7.265625 L 1.921875 -3.96875 Z M 3 -3.96875 "/></g></g></g><g fill="#ffffff" fill-opacity="1"><g transform="translate(151.791557, 234.165102)"><g><path d="M 1.078125 -8.046875 L 5.21875 -8.046875 L 5.21875 -7.265625 L 1.921875 -7.265625 L 1.921875 -4.5625 L 4.4375 -4.5625 L 4.4375 -3.78125 L 1.921875 -3.78125 L 1.921875 -0.78125 L 5.28125 -0.78125 L 5.28125 0 L 1.078125 0 Z M 1.078125 -8.046875 "/></g></g></g><g fill="#ffffff" fill-opacity="1"><g transform="translate(161.391708, 234.165102)"><g><path d="M 1.078125 -8.046875 L 3 -8.046875 C 3.394531 -8.046875 3.765625 -7.984375 4.109375 -7.859375 C 4.453125 -7.742188 4.742188 -7.582031 4.984375 -7.375 C 5.234375 -7.164062 5.425781 -6.914062 5.5625 -6.625 C 5.695312 -6.332031 5.765625 -6.015625 5.765625 -5.671875 C 5.765625 -5.390625 5.71875 -5.128906 5.625 -4.890625 C 5.539062 -4.648438 5.414062 -4.429688 5.25 -4.234375 C 5.09375 -4.035156 4.898438 -3.863281 4.671875 -3.71875 C 4.453125 -3.582031 4.210938 -3.476562 3.953125 -3.40625 L 6.234375 0 L 5.234375 0 L 3 -3.3125 L 1.921875 -3.3125 L 1.921875 0 L 1.078125 0 Z M 3 -4.09375 C 3.570312 -4.09375 4.035156 -4.234375 4.390625 -4.515625 C 4.742188 -4.804688 4.921875 -5.195312 4.921875 -5.6875 C 4.921875 -6.164062 4.742188 -6.546875 4.390625 -6.828125 C 4.035156 -7.117188 3.570312 -7.265625 3 -7.265625 L 1.921875 -7.265625 L 1.921875 -4.09375 Z M 3 -4.09375 "/></g></g></g><g fill="#ffffff" fill-opacity="1"><g transform="translate(171.711863, 234.165102)"><g><path d="M 3.421875 -8.28125 L 3.65625 -8.28125 L 6.71875 0 L 5.796875 0 L 5.046875 -2.109375 L 1.984375 -2.109375 L 1.234375 0 L 0.359375 0 Z M 4.765625 -2.890625 L 3.515625 -6.375 L 2.265625 -2.890625 Z M 4.765625 -2.890625 "/></g></g></g><g fill="#ffffff" fill-opacity="1"><g transform="translate(182.392015, 234.165102)"><g><path d="M 1.078125 -8.046875 L 1.921875 -8.046875 L 1.921875 -0.78125 L 5.15625 -0.78125 L 5.15625 0 L 1.078125 0 Z M 1.078125 -8.046875 "/></g></g></g><g fill="#ffffff" fill-opacity="1"><g transform="translate(191.69217, 234.165102)"><g/></g></g><g fill="#ffffff" fill-opacity="1"><g transform="translate(197.932313, 234.165102)"><g><path d="M 1.078125 -8.046875 L 3.703125 -8.046875 C 4.316406 -8.046875 4.882812 -7.941406 5.40625 -7.734375 C 5.925781 -7.535156 6.375 -7.253906 6.75 -6.890625 C 7.132812 -6.535156 7.4375 -6.113281 7.65625 -5.625 C 7.875 -5.132812 7.984375 -4.597656 7.984375 -4.015625 C 7.984375 -3.441406 7.875 -2.910156 7.65625 -2.421875 C 7.4375 -1.929688 7.132812 -1.503906 6.75 -1.140625 C 6.375 -0.785156 5.925781 -0.503906 5.40625 -0.296875 C 4.882812 -0.0976562 4.316406 0 3.703125 0 L 1.078125 0 Z M 3.703125 -0.78125 C 4.179688 -0.78125 4.628906 -0.859375 5.046875 -1.015625 C 5.460938 -1.179688 5.820312 -1.40625 6.125 -1.6875 C 6.425781 -1.976562 6.660156 -2.320312 6.828125 -2.71875 C 6.992188 -3.113281 7.078125 -3.546875 7.078125 -4.015625 C 7.078125 -4.492188 6.992188 -4.929688 6.828125 -5.328125 C 6.660156 -5.722656 6.425781 -6.0625 6.125 -6.34375 C 5.820312 -6.632812 5.460938 -6.859375 5.046875 -7.015625 C 4.628906 -7.179688 4.179688 -7.265625 3.703125 -7.265625 L 1.921875 -7.265625 L 1.921875 -0.78125 Z M 3.703125 -0.78125 "/></g></g></g><g fill="#ffffff" fill-opacity="1"><g transform="translate(210.112465, 234.165102)"><g><path d="M 1.078125 -8.046875 L 1.921875 -8.046875 L 1.921875 0 L 1.078125 0 Z M 1.078125 -8.046875 "/></g></g></g><g fill="#ffffff" fill-opacity="1"><g transform="translate(216.712615, 234.165102)"><g><path d="M 4.578125 0.125 C 4.023438 0.125 3.503906 0.0195312 3.015625 -0.1875 C 2.535156 -0.40625 2.113281 -0.695312 1.75 -1.0625 C 1.394531 -1.4375 1.113281 -1.875 0.90625 -2.375 C 0.695312 -2.875 0.59375 -3.410156 0.59375 -3.984375 C 0.59375 -4.554688 0.695312 -5.097656 0.90625 -5.609375 C 1.125 -6.117188 1.414062 -6.5625 1.78125 -6.9375 C 2.144531 -7.320312 2.570312 -7.617188 3.0625 -7.828125 C 3.550781 -8.046875 4.070312 -8.15625 4.625 -8.15625 C 5.21875 -8.15625 5.773438 -8.03125 6.296875 -7.78125 C 6.816406 -7.53125 7.265625 -7.1875 7.640625 -6.75 L 7.015625 -6.21875 C 6.703125 -6.570312 6.335938 -6.84375 5.921875 -7.03125 C 5.503906 -7.226562 5.066406 -7.328125 4.609375 -7.328125 C 4.160156 -7.328125 3.75 -7.242188 3.375 -7.078125 C 3 -6.910156 2.671875 -6.675781 2.390625 -6.375 C 2.109375 -6.082031 1.890625 -5.734375 1.734375 -5.328125 C 1.578125 -4.929688 1.5 -4.492188 1.5 -4.015625 C 1.5 -3.546875 1.578125 -3.109375 1.734375 -2.703125 C 1.890625 -2.296875 2.109375 -1.945312 2.390625 -1.65625 C 2.671875 -1.363281 3 -1.128906 3.375 -0.953125 C 3.757812 -0.785156 4.175781 -0.703125 4.625 -0.703125 C 5.132812 -0.703125 5.59375 -0.800781 6 -1 C 6.414062 -1.207031 6.765625 -1.476562 7.046875 -1.8125 L 7.046875 -3.546875 L 4.625 -3.546875 L 4.625 -4.3125 L 7.890625 -4.3125 L 7.890625 -1.65625 C 7.492188 -1.082031 7.007812 -0.640625 6.4375 -0.328125 C 5.863281 -0.0234375 5.242188 0.125 4.578125 0.125 Z M 4.578125 0.125 "/></g></g></g><g fill="#ffffff" fill-opacity="1"><g transform="translate(228.976767, 234.165102)"><g><path d="M 1.078125 -8.046875 L 1.921875 -8.046875 L 1.921875 0 L 1.078125 0 Z M 1.078125 -8.046875 "/></g></g></g><g fill="#ffffff" fill-opacity="1"><g transform="translate(235.576918, 234.165102)"><g><path d="M 3 -7.265625 L 0.359375 -7.265625 L 0.359375 -8.046875 L 6.484375 -8.046875 L 6.484375 -7.265625 L 3.84375 -7.265625 L 3.84375 0 L 3 0 Z M 3 -7.265625 "/></g></g></g><g fill="#ffffff" fill-opacity="1"><g transform="translate(246.017076, 234.165102)"><g><path d="M 3.421875 -8.28125 L 3.65625 -8.28125 L 6.71875 0 L 5.796875 0 L 5.046875 -2.109375 L 1.984375 -2.109375 L 1.234375 0 L 0.359375 0 Z M 4.765625 -2.890625 L 3.515625 -6.375 L 2.265625 -2.890625 Z M 4.765625 -2.890625 "/></g></g></g><g fill="#ffffff" fill-opacity="1"><g transform="translate(256.697217, 234.165102)"><g><path d="M 1.078125 -8.046875 L 1.921875 -8.046875 L 1.921875 -0.78125 L 5.15625 -0.78125 L 5.15625 0 L 1.078125 0 Z M 1.078125 -8.046875 "/></g></g></g><g fill="#ffffff" fill-opacity="1"><g transform="translate(265.997372, 234.165102)"><g/></g></g><g fill="#ffffff" fill-opacity="1"><g transform="translate(272.237514, 234.165102)"><g><path d="M 3.015625 0.125 C 2.472656 0.125 1.96875 -0.00390625 1.5 -0.265625 C 1.039062 -0.523438 0.660156 -0.898438 0.359375 -1.390625 L 1.015625 -1.921875 C 1.566406 -1.066406 2.238281 -0.640625 3.03125 -0.640625 C 3.5 -0.640625 3.875 -0.769531 4.15625 -1.03125 C 4.445312 -1.289062 4.59375 -1.628906 4.59375 -2.046875 C 4.59375 -2.421875 4.460938 -2.738281 4.203125 -3 C 3.941406 -3.257812 3.523438 -3.507812 2.953125 -3.75 C 2.222656 -4.019531 1.695312 -4.34375 1.375 -4.71875 C 1.050781 -5.101562 0.890625 -5.554688 0.890625 -6.078125 C 0.890625 -6.390625 0.941406 -6.671875 1.046875 -6.921875 C 1.148438 -7.179688 1.296875 -7.398438 1.484375 -7.578125 C 1.679688 -7.765625 1.910156 -7.90625 2.171875 -8 C 2.441406 -8.101562 2.742188 -8.15625 3.078125 -8.15625 C 3.992188 -8.15625 4.753906 -7.75 5.359375 -6.9375 L 4.703125 -6.40625 C 4.460938 -6.738281 4.207031 -6.984375 3.9375 -7.140625 C 3.675781 -7.296875 3.382812 -7.375 3.0625 -7.375 C 2.65625 -7.375 2.332031 -7.257812 2.09375 -7.03125 C 1.851562 -6.8125 1.734375 -6.515625 1.734375 -6.140625 C 1.734375 -5.785156 1.851562 -5.476562 2.09375 -5.21875 C 2.332031 -4.96875 2.738281 -4.734375 3.3125 -4.515625 C 4.039062 -4.234375 4.578125 -3.894531 4.921875 -3.5 C 5.265625 -3.113281 5.4375 -2.65625 5.4375 -2.125 C 5.4375 -1.789062 5.375 -1.484375 5.25 -1.203125 C 5.132812 -0.929688 4.96875 -0.695312 4.75 -0.5 C 4.53125 -0.300781 4.273438 -0.144531 3.984375 -0.03125 C 3.691406 0.0703125 3.367188 0.125 3.015625 0.125 Z M 3.015625 0.125 "/></g></g></g><g fill="#ffffff" fill-opacity="1"><g transform="translate(281.873668, 234.165102)"><g><path d="M 1.078125 -8.046875 L 1.921875 -8.046875 L 1.921875 -4.4375 L 6.234375 -4.4375 L 6.234375 -8.046875 L 7.078125 -8.046875 L 7.078125 0 L 6.234375 0 L 6.234375 -3.65625 L 1.921875 -3.65625 L 1.921875 0 L 1.078125 0 Z M 1.078125 -8.046875 "/></g></g></g><g fill="#ffffff" fill-opacity="1"><g transform="translate(293.633822, 234.165102)"><g><path d="M 4.625 0.125 C 4.070312 0.125 3.550781 0.015625 3.0625 -0.203125 C 2.570312 -0.421875 2.144531 -0.71875 1.78125 -1.09375 C 1.414062 -1.46875 1.125 -1.90625 0.90625 -2.40625 C 0.695312 -2.90625 0.59375 -3.441406 0.59375 -4.015625 C 0.59375 -4.585938 0.695312 -5.125 0.90625 -5.625 C 1.125 -6.132812 1.414062 -6.578125 1.78125 -6.953125 C 2.144531 -7.328125 2.570312 -7.617188 3.0625 -7.828125 C 3.550781 -8.046875 4.070312 -8.15625 4.625 -8.15625 C 5.175781 -8.15625 5.691406 -8.046875 6.171875 -7.828125 C 6.660156 -7.617188 7.085938 -7.328125 7.453125 -6.953125 C 7.816406 -6.578125 8.101562 -6.140625 8.3125 -5.640625 C 8.53125 -5.140625 8.640625 -4.597656 8.640625 -4.015625 C 8.640625 -3.453125 8.53125 -2.921875 8.3125 -2.421875 C 8.101562 -1.921875 7.816406 -1.484375 7.453125 -1.109375 C 7.085938 -0.734375 6.660156 -0.429688 6.171875 -0.203125 C 5.691406 0.015625 5.175781 0.125 4.625 0.125 Z M 4.625 -0.703125 C 5.0625 -0.703125 5.472656 -0.785156 5.859375 -0.953125 C 6.242188 -1.128906 6.570312 -1.363281 6.84375 -1.65625 C 7.125 -1.945312 7.34375 -2.296875 7.5 -2.703125 C 7.65625 -3.109375 7.734375 -3.546875 7.734375 -4.015625 C 7.734375 -4.492188 7.65625 -4.929688 7.5 -5.328125 C 7.34375 -5.734375 7.125 -6.082031 6.84375 -6.375 C 6.570312 -6.675781 6.242188 -6.910156 5.859375 -7.078125 C 5.472656 -7.242188 5.0625 -7.328125 4.625 -7.328125 C 4.175781 -7.328125 3.757812 -7.242188 3.375 -7.078125 C 3 -6.910156 2.671875 -6.675781 2.390625 -6.375 C 2.117188 -6.082031 1.898438 -5.734375 1.734375 -5.328125 C 1.578125 -4.929688 1.5 -4.492188 1.5 -4.015625 C 1.5 -3.546875 1.578125 -3.109375 1.734375 -2.703125 C 1.898438 -2.296875 2.117188 -1.945312 2.390625 -1.65625 C 2.671875 -1.363281 3 -1.128906 3.375 -0.953125 C 3.757812 -0.785156 4.175781 -0.703125 4.625 -0.703125 Z M 4.625 -0.703125 "/></g></g></g><g fill="#ffffff" fill-opacity="1"><g transform="translate(306.473978, 234.165102)"><g><path d="M 1.078125 -8.046875 L 3 -8.046875 C 3.394531 -8.046875 3.765625 -7.984375 4.109375 -7.859375 C 4.453125 -7.742188 4.742188 -7.578125 4.984375 -7.359375 C 5.234375 -7.140625 5.425781 -6.878906 5.5625 -6.578125 C 5.695312 -6.285156 5.765625 -5.960938 5.765625 -5.609375 C 5.765625 -5.265625 5.695312 -4.941406 5.5625 -4.640625 C 5.425781 -4.347656 5.234375 -4.09375 4.984375 -3.875 C 4.742188 -3.65625 4.453125 -3.484375 4.109375 -3.359375 C 3.765625 -3.242188 3.394531 -3.1875 3 -3.1875 L 1.921875 -3.1875 L 1.921875 0 L 1.078125 0 Z M 3 -3.96875 C 3.570312 -3.96875 4.035156 -4.117188 4.390625 -4.421875 C 4.742188 -4.722656 4.921875 -5.125 4.921875 -5.625 C 4.921875 -6.125 4.742188 -6.519531 4.390625 -6.8125 C 4.035156 -7.113281 3.570312 -7.265625 3 -7.265625 L 1.921875 -7.265625 L 1.921875 -3.96875 Z M 3 -3.96875 "/></g></g></g></svg>