<svg xmlns="http://www.w3.org/2000/svg" xmlns:xlink="http://www.w3.org/1999/xlink" width="500" zoomAndPan="magnify" viewBox="0 0 375 374.999991" height="500" preserveAspectRatio="xMidYMid meet" version="1.0"><defs><g/></defs><rect x="-37.5" width="450" fill="#ffffff" y="-37.499999" height="449.999989" fill-opacity="1"/><rect x="-37.5" width="450" fill="#ff5858" y="-37.499999" height="449.999989" fill-opacity="1"/><g fill="#ffffff" fill-opacity="1"><g transform="translate(40.699488, 205.807837)"><g><path d="M 21.632812 -22.464844 L 20.867188 -22.464844 L 10.015625 -12.589844 L 10.015625 -23.820312 C 10.015625 -28.03125 6.609375 -31.4375 2.363281 -31.4375 L 2.363281 -7.652344 C 2.363281 -3.40625 5.808594 0 10.015625 0 L 10.015625 -11.371094 L 13.773438 -4.136719 C 15.058594 -1.601562 17.703125 0 20.554688 0 L 24.691406 0 L 15.40625 -16.796875 Z M 21.632812 -22.464844 "/></g></g></g><g fill="#ffffff" fill-opacity="1"><g transform="translate(63.581428, 205.807837)"><g><path d="M 10.328125 -30.1875 C 10.328125 -32.445312 8.660156 -34.324219 6.085938 -34.324219 C 3.582031 -34.324219 1.914062 -32.445312 1.914062 -30.1875 C 1.914062 -27.960938 3.582031 -26.046875 6.085938 -26.046875 C 8.660156 -26.046875 10.328125 -27.960938 10.328125 -30.1875 Z M 2.328125 -22.464844 L 2.328125 -7.652344 C 2.328125 -3.40625 5.738281 0 9.980469 0 L 9.980469 -14.816406 C 9.980469 -19.058594 6.539062 -22.464844 2.328125 -22.464844 Z M 2.328125 -22.464844 "/></g></g></g><g fill="#ffffff" fill-opacity="1"><g transform="translate(73.666026, 205.807837)"><g><path d="M 21.632812 -22.464844 L 15.023438 -7.09375 L 11.371094 -15.40625 C 9.492188 -19.683594 5.25 -22.464844 0.589844 -22.464844 L 0.347656 -22.464844 L 11.476562 1.21875 L 8.867188 7.335938 L 9.390625 7.335938 L 22.152344 -22.464844 Z M 21.632812 -22.464844 "/></g></g></g><g fill="#ffffff" fill-opacity="1"><g transform="translate(94.044138, 205.807837)"><g><path d="M 25.214844 -11.789062 C 25.214844 -18.746094 18.988281 -23.371094 13.214844 -23.371094 C 7.476562 -23.371094 1.21875 -18.746094 1.21875 -11.789062 C 1.21875 -4.730469 7.476562 0 13.214844 0 C 18.988281 0 25.214844 -4.730469 25.214844 -11.789062 Z M 9.320312 -11.789062 C 9.320312 -19.371094 10.433594 -22.917969 13.214844 -22.917969 C 15.996094 -22.917969 17.144531 -19.371094 17.144531 -11.789062 C 17.144531 -4.105469 15.996094 -0.453125 13.214844 -0.453125 C 10.433594 -0.453125 9.320312 -4.105469 9.320312 -11.789062 Z M 9.320312 -11.789062 "/></g></g></g><g fill="#ffffff" fill-opacity="1"><g transform="translate(118.317101, 205.807837)"><g><path d="M 21.351562 -12.277344 L 21.351562 -13.839844 L 12.136719 -13.839844 L 12.136719 -23.089844 L 10.570312 -23.089844 L 10.570312 -13.839844 L 1.390625 -13.839844 L 1.390625 -12.277344 L 10.570312 -12.277344 L 10.570312 -3.09375 L 12.136719 -3.09375 L 12.136719 -12.277344 Z M 21.351562 -12.277344 "/></g></g></g><g fill="#e0144c" fill-opacity="1"><g transform="translate(138.914325, 205.807837)"><g/></g></g><g fill="#e0144c" fill-opacity="1"><g transform="translate(141.904754, 205.807837)"><g><path d="M 19.476562 -7.789062 C 19.476562 -16.277344 4.695312 -14.1875 4.695312 -19.648438 C 4.695312 -21.664062 6.78125 -22.917969 9.945312 -22.917969 C 14.535156 -22.917969 17.703125 -20.484375 17.703125 -15.648438 L 18.082031 -15.648438 C 18.082031 -20.796875 14.78125 -23.371094 9.945312 -23.371094 C 4.695312 -23.371094 1.320312 -20.273438 1.320312 -15.824219 C 1.320312 -6.191406 16.101562 -9.078125 16.101562 -3.652344 C 16.101562 -1.53125 14.015625 -0.453125 10.816406 -0.453125 C 5.597656 -0.453125 1.914062 -3.6875 1.914062 -8.414062 L 1.460938 -8.414062 C 1.460938 -3.234375 5.496094 0 10.539062 0 C 15.925781 0 19.476562 -3.339844 19.476562 -7.789062 Z M 19.476562 -7.789062 "/></g></g></g><g fill="#e0144c" fill-opacity="1"><g transform="translate(160.404992, 205.807837)"><g><path d="M 23.890625 -8.414062 L 23.472656 -8.414062 C 22.988281 -3.339844 19.890625 -1.253906 16.378906 -1.253906 C 11.929688 -1.253906 9.320312 -3.929688 9.320312 -11.617188 L 23.578125 -11.617188 C 23.789062 -19.960938 18.8125 -23.371094 13.042969 -23.371094 C 6.085938 -23.371094 1.21875 -18.710938 1.21875 -11.71875 C 1.21875 -4.695312 6.46875 0 14.121094 0 C 19.300781 0 23.371094 -2.574219 23.890625 -8.414062 Z M 13.007812 -22.917969 C 16.414062 -22.917969 16.171875 -15.789062 16.171875 -12.03125 L 9.320312 -12.03125 C 9.355469 -19.058594 10.398438 -22.917969 13.007812 -22.917969 Z M 13.007812 -22.917969 "/></g></g></g><g fill="#e0144c" fill-opacity="1"><g transform="translate(183.35648, 205.807837)"><g><path d="M 18.292969 -22.464844 L 18.292969 -22.917969 C 13.25 -22.917969 10.917969 -19.890625 10.015625 -15.71875 C 10.015625 -19.441406 6.988281 -22.464844 3.269531 -22.464844 L 2.363281 -22.464844 L 2.363281 -6.746094 C 2.363281 -3.027344 5.390625 0 9.113281 0 L 10.015625 0 L 10.015625 -10.816406 C 10.015625 -17.109375 11.753906 -22.464844 18.292969 -22.464844 Z M 18.292969 -22.464844 "/></g></g></g><g fill="#e0144c" fill-opacity="1"><g transform="translate(199.770196, 205.807837)"><g><path d="M 13.042969 -23.371094 C 8.066406 -23.371094 4.730469 -21.421875 3.339844 -17.875 L 3.824219 -17.875 C 5.042969 -20.796875 7.582031 -22.363281 10.539062 -22.363281 C 14.015625 -22.363281 15.40625 -20.414062 15.40625 -16.101562 L 15.40625 -13.074219 C 6.609375 -12.277344 1.183594 -9.5625 1.183594 -4.9375 C 1.183594 -2.46875 2.78125 0 6.640625 0 C 11.128906 0 14.605469 -2.328125 15.578125 -8.136719 L 15.578125 -7.476562 C 15.578125 -3.339844 18.917969 0 23.023438 0 L 23.023438 -13.738281 C 23.058594 -20.414062 18.953125 -23.371094 13.042969 -23.371094 Z M 8.832031 -6.433594 C 8.832031 -9.945312 11.546875 -12.101562 15.40625 -12.726562 L 15.40625 -11.683594 C 15.40625 -5.183594 13.109375 -3.234375 11.371094 -3.234375 C 9.839844 -3.234375 8.832031 -4.3125 8.832031 -6.433594 Z M 8.832031 -6.433594 "/></g></g></g><g fill="#e0144c" fill-opacity="1"><g transform="translate(222.791238, 205.807837)"><g><path d="M 18.015625 0.0703125 C 23.578125 0.0703125 27.125 -4.171875 27.125 -11.71875 C 27.125 -19.058594 23.613281 -23.300781 18.082031 -23.300781 C 13.980469 -23.300781 11.09375 -20.726562 10.015625 -16.066406 C 10.015625 -19.824219 6.988281 -22.847656 3.234375 -22.847656 L 2.363281 -22.847656 L 2.363281 0.0351562 C 2.363281 3.757812 5.425781 6.816406 9.144531 6.816406 L 10.015625 6.816406 L 10.015625 -7.269531 C 11.09375 -2.503906 13.910156 0.0703125 18.015625 0.0703125 Z M 10.015625 -11.71875 C 10.015625 -17.597656 12.378906 -21.492188 14.78125 -21.492188 C 17.320312 -21.492188 19.058594 -17.597656 19.058594 -11.71875 C 19.058594 -5.738281 17.320312 -1.738281 14.78125 -1.738281 C 12.378906 -1.738281 10.015625 -5.738281 10.015625 -11.71875 Z M 10.015625 -11.71875 "/></g></g></g><g fill="#e0144c" fill-opacity="1"><g transform="translate(249.011619, 205.807837)"><g><path d="M 17.597656 -22.917969 C 13.144531 -22.917969 10.917969 -20.136719 10.015625 -15.996094 L 10.015625 -23.820312 C 10.015625 -28.03125 6.609375 -31.4375 2.363281 -31.4375 L 2.363281 -7.652344 C 2.363281 -3.40625 5.808594 0 10.015625 0 L 10.015625 -12.726562 C 10.292969 -17.214844 11.859375 -20.796875 14.675781 -20.796875 C 16.484375 -20.796875 17.320312 -19.542969 17.320312 -16.902344 L 17.320312 -7.652344 C 17.320312 -3.441406 20.761719 0 24.96875 0 L 24.96875 -14.953125 C 24.96875 -19.753906 22.363281 -22.917969 17.597656 -22.917969 Z M 17.597656 -22.917969 "/></g></g></g><g fill="#e0144c" fill-opacity="1"><g transform="translate(273.980085, 205.807837)"><g><path d="M 10.328125 -30.1875 C 10.328125 -32.445312 8.660156 -34.324219 6.085938 -34.324219 C 3.582031 -34.324219 1.914062 -32.445312 1.914062 -30.1875 C 1.914062 -27.960938 3.582031 -26.046875 6.085938 -26.046875 C 8.660156 -26.046875 10.328125 -27.960938 10.328125 -30.1875 Z M 2.328125 -22.464844 L 2.328125 -7.652344 C 2.328125 -3.40625 5.738281 0 9.980469 0 L 9.980469 -14.816406 C 9.980469 -19.058594 6.539062 -22.464844 2.328125 -22.464844 Z M 2.328125 -22.464844 "/></g></g></g><g fill="#e0144c" fill-opacity="1"><g transform="translate(284.064686, 205.807837)"><g><path d="M 14.675781 -20.796875 C 16.484375 -20.796875 17.320312 -19.542969 17.320312 -16.902344 L 17.320312 -6.46875 C 17.320312 -2.886719 20.238281 0 23.789062 0 L 24.96875 0 L 24.96875 -14.953125 C 24.96875 -19.753906 22.363281 -22.917969 17.597656 -22.917969 C 13.144531 -22.917969 10.917969 -20.136719 10.015625 -15.996094 C 10.015625 -19.578125 7.128906 -22.464844 3.546875 -22.464844 L 2.363281 -22.464844 L 2.363281 -6.46875 C 2.363281 -2.886719 5.285156 0 8.832031 0 L 10.015625 0 L 10.015625 -12.726562 C 10.292969 -17.214844 11.859375 -20.796875 14.675781 -20.796875 Z M 14.675781 -20.796875 "/></g></g></g><g fill="#e0144c" fill-opacity="1"><g transform="translate(309.033152, 205.807837)"><g><path d="M 13.042969 -23.371094 C 8.066406 -23.371094 4.730469 -21.421875 3.339844 -17.875 L 3.824219 -17.875 C 5.042969 -20.796875 7.582031 -22.363281 10.539062 -22.363281 C 14.015625 -22.363281 15.40625 -20.414062 15.40625 -16.101562 L 15.40625 -13.074219 C 6.609375 -12.277344 1.183594 -9.5625 1.183594 -4.9375 C 1.183594 -2.46875 2.78125 0 6.640625 0 C 11.128906 0 14.605469 -2.328125 15.578125 -8.136719 L 15.578125 -7.476562 C 15.578125 -3.339844 18.917969 0 23.023438 0 L 23.023438 -13.738281 C 23.058594 -20.414062 18.953125 -23.371094 13.042969 -23.371094 Z M 8.832031 -6.433594 C 8.832031 -9.945312 11.546875 -12.101562 15.40625 -12.726562 L 15.40625 -11.683594 C 15.40625 -5.183594 13.109375 -3.234375 11.371094 -3.234375 C 9.839844 -3.234375 8.832031 -4.3125 8.832031 -6.433594 Z M 8.832031 -6.433594 "/></g></g></g></svg>