<svg xmlns="http://www.w3.org/2000/svg" xmlns:xlink="http://www.w3.org/1999/xlink" width="500" zoomAndPan="magnify" viewBox="0 0 375 374.999991" height="500" preserveAspectRatio="xMidYMid meet" version="1.0"><defs><g/></defs><rect x="-37.5" width="450" fill="#ffffff" y="-37.499999" height="449.999989" fill-opacity="1"/><rect x="-37.5" width="450" fill="#ff5858" y="-37.499999" height="449.999989" fill-opacity="1"/><g fill="#ffffff" fill-opacity="1"><g transform="translate(122.374062, 228.409907)"><g><path d="M 62.492188 -64.90625 L 60.28125 -64.90625 L 28.9375 -36.371094 L 28.9375 -68.824219 C 28.9375 -80.980469 19.089844 -90.828125 6.832031 -90.828125 L 6.832031 -22.105469 C 6.832031 -9.847656 16.777344 0 28.9375 0 L 28.9375 -32.855469 L 39.785156 -11.957031 C 43.503906 -4.621094 51.140625 0 59.378906 0 L 71.335938 0 L 44.507812 -48.527344 Z M 62.492188 -64.90625 "/></g></g></g><g fill="#e0144c" fill-opacity="1"><g transform="translate(187.499992, 256.74924)"><g><path d="M 56.265625 -22.503906 C 56.265625 -47.019531 13.5625 -40.992188 13.5625 -56.765625 C 13.5625 -62.59375 19.59375 -66.210938 28.734375 -66.210938 C 41.996094 -66.210938 51.140625 -59.179688 51.140625 -45.210938 L 52.246094 -45.210938 C 52.246094 -60.082031 42.699219 -67.515625 28.734375 -67.515625 C 13.5625 -67.515625 3.816406 -58.574219 3.816406 -45.714844 C 3.816406 -17.882812 46.519531 -26.222656 46.519531 -10.550781 C 46.519531 -4.421875 40.488281 -1.304688 31.246094 -1.304688 C 16.175781 -1.304688 5.527344 -10.648438 5.527344 -24.3125 L 4.21875 -24.3125 C 4.21875 -9.34375 15.875 0 30.441406 0 C 46.015625 0 56.265625 -9.644531 56.265625 -22.503906 Z M 56.265625 -22.503906 "/></g></g></g><g fill="#ffffff" fill-opacity="1"><g transform="translate(137.06637, 121.95253)"><g><path d="M -1.4375 -5.9375 L -0.8125 -6.15625 L 2.59375 -3.953125 L 3.78125 -7.828125 L 4.40625 -8.046875 L 6.46875 -2.34375 L 5.25 -1.90625 L 4.125 -5.015625 L 3.359375 -2.5625 L 2.875 -2.390625 L 0.71875 -3.78125 L 1.84375 -0.671875 L 0.625 -0.234375 Z M -1.4375 -5.9375 "/></g></g></g><g fill="#ffffff" fill-opacity="1"><g transform="translate(150.722815, 117.603266)"><g><path d="M 3.015625 -0.46875 C 2.671875 -0.40625 2.335938 -0.40625 2.015625 -0.46875 C 1.703125 -0.53125 1.414062 -0.648438 1.15625 -0.828125 C 0.90625 -1.003906 0.691406 -1.234375 0.515625 -1.515625 C 0.335938 -1.796875 0.210938 -2.117188 0.140625 -2.484375 L -0.5625 -5.96875 L 0.71875 -6.21875 L 1.421875 -2.75 C 1.492188 -2.363281 1.648438 -2.078125 1.890625 -1.890625 C 2.140625 -1.710938 2.429688 -1.65625 2.765625 -1.71875 C 3.097656 -1.789062 3.34375 -1.957031 3.5 -2.21875 C 3.65625 -2.488281 3.695312 -2.816406 3.625 -3.203125 L 2.921875 -6.671875 L 4.1875 -6.921875 L 4.890625 -3.4375 C 4.960938 -3.070312 4.96875 -2.722656 4.90625 -2.390625 C 4.851562 -2.066406 4.742188 -1.773438 4.578125 -1.515625 C 4.410156 -1.253906 4.195312 -1.03125 3.9375 -0.84375 C 3.675781 -0.664062 3.367188 -0.539062 3.015625 -0.46875 Z M 3.015625 -0.46875 "/></g></g></g><g fill="#ffffff" fill-opacity="1"><g transform="translate(163.469014, 115.557939)"><g><path d="M 2.28125 0.015625 C 1.820312 0.046875 1.398438 -0.03125 1.015625 -0.21875 C 0.628906 -0.40625 0.316406 -0.6875 0.078125 -1.0625 L 0.9375 -1.875 C 1.269531 -1.34375 1.691406 -1.09375 2.203125 -1.125 C 2.421875 -1.144531 2.597656 -1.210938 2.734375 -1.328125 C 2.867188 -1.441406 2.929688 -1.585938 2.921875 -1.765625 C 2.910156 -1.929688 2.832031 -2.070312 2.6875 -2.1875 C 2.539062 -2.300781 2.285156 -2.425781 1.921875 -2.5625 C 1.359375 -2.757812 0.9375 -3 0.65625 -3.28125 C 0.382812 -3.570312 0.234375 -3.914062 0.203125 -4.3125 C 0.191406 -4.570312 0.226562 -4.816406 0.3125 -5.046875 C 0.394531 -5.273438 0.515625 -5.472656 0.671875 -5.640625 C 0.835938 -5.804688 1.035156 -5.9375 1.265625 -6.03125 C 1.492188 -6.132812 1.75 -6.195312 2.03125 -6.21875 C 2.789062 -6.269531 3.445312 -5.988281 4 -5.375 L 3.1875 -4.53125 C 3.019531 -4.738281 2.847656 -4.890625 2.671875 -4.984375 C 2.503906 -5.078125 2.316406 -5.117188 2.109375 -5.109375 C 1.921875 -5.097656 1.769531 -5.035156 1.65625 -4.921875 C 1.539062 -4.816406 1.488281 -4.679688 1.5 -4.515625 C 1.507812 -4.335938 1.59375 -4.191406 1.75 -4.078125 C 1.914062 -3.972656 2.160156 -3.867188 2.484375 -3.765625 C 3.066406 -3.554688 3.488281 -3.304688 3.75 -3.015625 C 4.019531 -2.722656 4.164062 -2.375 4.1875 -1.96875 C 4.207031 -1.6875 4.175781 -1.425781 4.09375 -1.1875 C 4.007812 -0.957031 3.882812 -0.753906 3.71875 -0.578125 C 3.550781 -0.410156 3.34375 -0.273438 3.09375 -0.171875 C 2.851562 -0.0664062 2.582031 -0.00390625 2.28125 0.015625 Z M 2.28125 0.015625 "/></g></g></g><g fill="#ffffff" fill-opacity="1"><g transform="translate(174.97188, 115.276258)"><g><path d="M 0.984375 -5.90625 L 2.28125 -5.84375 L 1.96875 0.09375 L 0.671875 0.03125 Z M 0.984375 -5.90625 "/></g></g></g><g fill="#ffffff" fill-opacity="1"><g transform="translate(184.418785, 116.080795)"><g><path d="M 3.34375 0.71875 C 2.894531 0.632812 2.492188 0.484375 2.140625 0.265625 C 1.796875 0.046875 1.515625 -0.21875 1.296875 -0.53125 C 1.078125 -0.851562 0.921875 -1.210938 0.828125 -1.609375 C 0.742188 -2.015625 0.742188 -2.4375 0.828125 -2.875 C 0.898438 -3.3125 1.046875 -3.703125 1.265625 -4.046875 C 1.484375 -4.390625 1.75 -4.675781 2.0625 -4.90625 C 2.382812 -5.132812 2.742188 -5.289062 3.140625 -5.375 C 3.535156 -5.46875 3.953125 -5.476562 4.390625 -5.40625 C 4.847656 -5.320312 5.253906 -5.160156 5.609375 -4.921875 C 5.972656 -4.679688 6.269531 -4.367188 6.5 -3.984375 L 5.453125 -3.28125 C 5.316406 -3.507812 5.140625 -3.695312 4.921875 -3.84375 C 4.710938 -4 4.476562 -4.097656 4.21875 -4.140625 C 3.957031 -4.179688 3.710938 -4.175781 3.484375 -4.125 C 3.265625 -4.082031 3.0625 -3.992188 2.875 -3.859375 C 2.695312 -3.722656 2.546875 -3.550781 2.421875 -3.34375 C 2.296875 -3.132812 2.210938 -2.898438 2.171875 -2.640625 C 2.128906 -2.390625 2.128906 -2.140625 2.171875 -1.890625 C 2.222656 -1.648438 2.3125 -1.4375 2.4375 -1.25 C 2.570312 -1.0625 2.738281 -0.90625 2.9375 -0.78125 C 3.132812 -0.65625 3.363281 -0.570312 3.625 -0.53125 C 3.894531 -0.476562 4.160156 -0.488281 4.421875 -0.5625 C 4.679688 -0.644531 4.90625 -0.765625 5.09375 -0.921875 L 5.828125 0.078125 C 5.492188 0.359375 5.113281 0.554688 4.6875 0.671875 C 4.269531 0.785156 3.820312 0.800781 3.34375 0.71875 Z M 3.34375 0.71875 "/></g></g></g><g fill="#ffffff" fill-opacity="1"><g transform="translate(196.913477, 118.801335)"><g/></g></g><g fill="#ffffff" fill-opacity="1"><g transform="translate(205.266082, 121.622837)"><g><path d="M 4.65625 -4.59375 L 5.421875 -4.265625 L 5.140625 2.234375 L 3.890625 1.6875 L 3.9375 0.625 L 2.0625 -0.1875 L 1.34375 0.578125 L 0.09375 0.03125 Z M 4.03125 -0.578125 L 4.171875 -2.40625 L 2.875 -1.0625 Z M 4.03125 -0.578125 "/></g></g></g><g fill="#ffffff" fill-opacity="1"><g transform="translate(216.549346, 127.043755)"><g><path d="M 3.65625 -4.75 L 5.1875 -3.8125 C 5.46875 -3.644531 5.695312 -3.445312 5.875 -3.21875 C 6.050781 -3 6.175781 -2.757812 6.25 -2.5 C 6.320312 -2.25 6.34375 -1.988281 6.3125 -1.71875 C 6.28125 -1.457031 6.1875 -1.203125 6.03125 -0.953125 C 5.882812 -0.703125 5.703125 -0.5 5.484375 -0.34375 C 5.265625 -0.1875 5.023438 -0.0820312 4.765625 -0.03125 C 4.515625 0.0195312 4.25 0.0234375 3.96875 -0.015625 C 3.6875 -0.0664062 3.414062 -0.175781 3.15625 -0.34375 L 2.6875 -0.625 L 1.6875 1.015625 L 0.578125 0.34375 Z M 3.734375 -1.40625 C 3.960938 -1.269531 4.1875 -1.21875 4.40625 -1.25 C 4.625 -1.28125 4.796875 -1.40625 4.921875 -1.625 C 5.046875 -1.820312 5.070312 -2.023438 5 -2.234375 C 4.9375 -2.453125 4.789062 -2.628906 4.5625 -2.765625 L 4.140625 -3.03125 L 3.3125 -1.671875 Z M 3.734375 -1.40625 "/></g></g></g><g fill="#ffffff" fill-opacity="1"><g transform="translate(226.462339, 133.554352)"><g><path d="M 4.25 -4.234375 L 5.640625 -3.109375 C 5.898438 -2.910156 6.101562 -2.6875 6.25 -2.4375 C 6.394531 -2.195312 6.484375 -1.945312 6.515625 -1.6875 C 6.554688 -1.425781 6.546875 -1.160156 6.484375 -0.890625 C 6.421875 -0.628906 6.296875 -0.382812 6.109375 -0.15625 C 5.929688 0.0703125 5.71875 0.242188 5.46875 0.359375 C 5.226562 0.484375 4.976562 0.554688 4.71875 0.578125 C 4.46875 0.597656 4.207031 0.566406 3.9375 0.484375 C 3.664062 0.398438 3.410156 0.257812 3.171875 0.0625 L 2.734375 -0.265625 L 1.53125 1.234375 L 0.53125 0.421875 Z M 3.875 -0.90625 C 4.09375 -0.738281 4.3125 -0.65625 4.53125 -0.65625 C 4.75 -0.664062 4.9375 -0.769531 5.09375 -0.96875 C 5.25 -1.15625 5.304688 -1.359375 5.265625 -1.578125 C 5.222656 -1.796875 5.09375 -1.988281 4.875 -2.15625 L 4.484375 -2.46875 L 3.484375 -1.21875 Z M 3.875 -0.90625 "/></g></g></g><g fill="#ffffff" fill-opacity="1"><g transform="translate(235.444661, 141.305828)"><g><path d="M 4.75 -3.65625 L 7.125 -1.203125 L 6.25 -0.359375 L 4.78125 -1.875 L 3.984375 -1.109375 L 5.046875 -0.015625 L 4.171875 0.828125 L 3.109375 -0.265625 L 2.25 0.578125 L 3.734375 2.109375 L 2.859375 2.953125 L 0.46875 0.484375 Z M 4.75 -3.65625 "/></g></g></g><g fill="#ffffff" fill-opacity="1"><g transform="translate(243.062011, 149.777544)"><g><path d="M 5.1875 -3.03125 L 6.296875 -1.53125 C 6.484375 -1.28125 6.613281 -1.019531 6.6875 -0.75 C 6.769531 -0.488281 6.800781 -0.226562 6.78125 0.03125 C 6.757812 0.289062 6.6875 0.53125 6.5625 0.75 C 6.4375 0.976562 6.257812 1.175781 6.03125 1.34375 C 5.75 1.550781 5.4375 1.671875 5.09375 1.703125 C 4.757812 1.742188 4.441406 1.691406 4.140625 1.546875 L 3.046875 4.09375 L 2.140625 2.875 L 3.125 0.703125 L 2.84375 0.328125 L 1.171875 1.578125 L 0.40625 0.53125 Z M 4.0625 0.046875 C 4.238281 0.265625 4.429688 0.394531 4.640625 0.4375 C 4.847656 0.488281 5.046875 0.441406 5.234375 0.296875 C 5.429688 0.148438 5.523438 -0.0195312 5.515625 -0.21875 C 5.515625 -0.414062 5.429688 -0.625 5.265625 -0.84375 L 4.96875 -1.25 L 3.765625 -0.359375 Z M 4.0625 0.046875 "/></g></g></g><g fill="#ffffff" fill-opacity="1"><g transform="translate(249.902013, 159.704276)"><g><path d="M 6.5 -0.796875 L 6.890625 -0.078125 L 2.71875 4.90625 L 2.046875 3.703125 L 2.75 2.90625 L 1.765625 1.109375 L 0.703125 1.28125 L 0.046875 0.078125 Z M 3.53125 2 L 4.78125 0.625 L 2.9375 0.90625 Z M 3.53125 2 "/></g></g></g><g fill="#ffffff" fill-opacity="1"><g transform="translate(255.530885, 170.893371)"><g><path d="M 5.78125 -1.5625 L 6.25 -0.359375 L 1.859375 1.375 L 2.625 3.296875 L 1.484375 3.75 L 0.25 0.625 Z M 5.78125 -1.5625 "/></g></g></g><g fill="#ffffff" fill-opacity="1"><g transform="translate(259.208706, 181.433481)"><g/></g></g><g fill="#ffffff" fill-opacity="1"><g transform="translate(261.250079, 190.003104)"><g><path d="M 5.984375 -0.1875 L 6.328125 2.125 C 6.390625 2.570312 6.367188 2.988281 6.265625 3.375 C 6.171875 3.769531 6.015625 4.125 5.796875 4.4375 C 5.585938 4.75 5.3125 5.007812 4.96875 5.21875 C 4.632812 5.425781 4.253906 5.5625 3.828125 5.625 C 3.398438 5.675781 2.992188 5.648438 2.609375 5.546875 C 2.234375 5.453125 1.894531 5.285156 1.59375 5.046875 C 1.289062 4.816406 1.035156 4.523438 0.828125 4.171875 C 0.628906 3.828125 0.5 3.429688 0.4375 2.984375 L 0.09375 0.671875 Z M 1.640625 2.828125 C 1.671875 3.078125 1.742188 3.296875 1.859375 3.484375 C 1.984375 3.671875 2.132812 3.828125 2.3125 3.953125 C 2.488281 4.085938 2.6875 4.179688 2.90625 4.234375 C 3.132812 4.296875 3.378906 4.3125 3.640625 4.28125 C 3.890625 4.238281 4.109375 4.15625 4.296875 4.03125 C 4.492188 3.914062 4.660156 3.769531 4.796875 3.59375 C 4.929688 3.425781 5.023438 3.234375 5.078125 3.015625 C 5.140625 2.796875 5.15625 2.5625 5.125 2.3125 L 4.96875 1.265625 L 1.484375 1.78125 Z M 1.640625 2.828125 "/></g></g></g><g fill="#ffffff" fill-opacity="1"><g transform="translate(262.613765, 203.194335)"><g><path d="M 5.96875 0.5625 L 5.984375 1.859375 L 0.03125 1.96875 L 0.015625 0.671875 Z M 5.96875 0.5625 "/></g></g></g><g fill="#ffffff" fill-opacity="1"><g transform="translate(262.485804, 212.670965)"><g><path d="M -0.453125 3.296875 C -0.410156 2.859375 -0.296875 2.460938 -0.109375 2.109375 C 0.078125 1.765625 0.320312 1.472656 0.625 1.234375 C 0.9375 1.003906 1.28125 0.832031 1.65625 0.71875 C 2.039062 0.601562 2.453125 0.570312 2.890625 0.625 C 3.347656 0.664062 3.753906 0.785156 4.109375 0.984375 C 4.472656 1.179688 4.773438 1.429688 5.015625 1.734375 C 5.265625 2.046875 5.445312 2.394531 5.5625 2.78125 C 5.6875 3.175781 5.726562 3.59375 5.6875 4.03125 C 5.632812 4.5 5.492188 4.921875 5.265625 5.296875 C 5.046875 5.671875 4.757812 5.984375 4.40625 6.234375 L 3.625 5.234375 C 3.84375 5.066406 4.019531 4.867188 4.15625 4.640625 C 4.300781 4.421875 4.390625 4.179688 4.421875 3.921875 C 4.441406 3.660156 4.421875 3.421875 4.359375 3.203125 C 4.296875 2.984375 4.191406 2.785156 4.046875 2.609375 C 3.898438 2.429688 3.71875 2.289062 3.5 2.1875 C 3.289062 2.082031 3.050781 2.015625 2.78125 1.984375 C 2.507812 1.953125 2.253906 1.96875 2.015625 2.03125 C 1.785156 2.09375 1.582031 2.191406 1.40625 2.328125 C 1.226562 2.472656 1.082031 2.648438 0.96875 2.859375 C 0.863281 3.078125 0.800781 3.316406 0.78125 3.578125 C 0.75 3.804688 0.753906 4.015625 0.796875 4.203125 C 0.835938 4.398438 0.914062 4.585938 1.03125 4.765625 L 1.84375 4.859375 L 1.953125 3.734375 L 3.015625 3.84375 L 2.765625 6.265625 L 0.390625 6.015625 C 0.0546875 5.660156 -0.179688 5.25 -0.328125 4.78125 C -0.472656 4.3125 -0.515625 3.816406 -0.453125 3.296875 Z M -0.453125 3.296875 "/></g></g></g><g fill="#ffffff" fill-opacity="1"><g transform="translate(260.556212, 225.746801)"><g><path d="M 5.640625 2.015625 L 5.34375 3.28125 L -0.453125 1.921875 L -0.15625 0.65625 Z M 5.640625 2.015625 "/></g></g></g><g fill="#ffffff" fill-opacity="1"><g transform="translate(258.070489, 234.905228)"><g><path d="M 3.796875 3.40625 L 4.390625 1.765625 L 5.53125 2.1875 L 3.90625 6.671875 L 2.765625 6.25 L 3.359375 4.625 L -1.09375 3.015625 L -0.65625 1.796875 Z M 3.796875 3.40625 "/></g></g></g><g fill="#ffffff" fill-opacity="1"><g transform="translate(253.588487, 245.972924)"><g><path d="M 4.25 4.96875 L 3.859375 5.703125 L -2.609375 4.96875 L -1.96875 3.75 L -0.90625 3.90625 L 0.046875 2.09375 L -0.6875 1.296875 L -0.046875 0.078125 Z M 0.265625 4.0625 L 2.109375 4.328125 L 0.84375 2.953125 Z M 0.265625 4.0625 "/></g></g></g><g fill="#ffffff" fill-opacity="1"><g transform="translate(247.344449, 256.833461)"><g><path d="M 4.484375 3.96875 L 3.75 5.03125 L -0.125 2.3125 L -1.3125 4 L -2.3125 3.296875 L -0.390625 0.546875 Z M 4.484375 3.96875 "/></g></g></g></svg>