<svg xmlns="http://www.w3.org/2000/svg" xmlns:xlink="http://www.w3.org/1999/xlink" width="500" zoomAndPan="magnify" viewBox="0 0 375 374.999991" height="500" preserveAspectRatio="xMidYMid meet" version="1.0"><defs><g/><clipPath id="e520432d8e"><path d="M 33.507812 200.605469 L 350.742188 200.605469 L 350.742188 237.679688 L 33.507812 237.679688 Z M 33.507812 200.605469 " clip-rule="nonzero"/></clipPath></defs><rect x="-37.5" width="450" fill="#ffffff" y="-37.499999" height="449.999989" fill-opacity="1"/><rect x="-37.5" width="450" fill="#e77578" y="-37.499999" height="449.999989" fill-opacity="1"/><g fill="#f4f4f4" fill-opacity="1"><g transform="translate(176.410085, 273.355588)"><g><path d="M 1.640625 0 L 1.640625 -1.8125 L 5.453125 -1.8125 C 9.210938 -1.8125 12.394531 -2.75 15 -4.625 C 17.601562 -6.507812 20.601562 -9.9375 24 -14.90625 L 54.53125 -60.359375 L 21.453125 -118.171875 C 19.390625 -121.921875 17.238281 -124.492188 15 -125.890625 C 12.757812 -127.285156 9.757812 -127.984375 6 -127.984375 L 4.359375 -127.984375 L 4.359375 -129.796875 L 56.53125 -129.796875 L 56.53125 -127.984375 L 54.359375 -127.984375 C 47.566406 -127.984375 44.171875 -126.226562 44.171875 -122.71875 C 44.171875 -120.164062 45.566406 -116.585938 48.359375 -111.984375 L 68.53125 -76.71875 L 91.984375 -111.625 C 95.503906 -116.832031 97.265625 -120.585938 97.265625 -122.890625 C 97.265625 -124.828125 96.351562 -126.160156 94.53125 -126.890625 C 92.71875 -127.617188 89.929688 -127.984375 86.171875 -127.984375 L 77.8125 -127.984375 L 77.8125 -129.796875 L 117.984375 -129.796875 L 117.984375 -127.984375 L 114.890625 -127.984375 C 111.253906 -127.984375 108.101562 -127.039062 105.4375 -125.15625 C 102.769531 -123.28125 99.742188 -119.859375 96.359375 -114.890625 L 69.453125 -74.90625 L 104.171875 -14.1875 C 106.953125 -9.332031 109.492188 -6.054688 111.796875 -4.359375 C 114.109375 -2.660156 117.140625 -1.8125 120.890625 -1.8125 L 121.984375 -1.8125 L 121.984375 0 L 69.984375 0 L 69.984375 -1.8125 L 72.71875 -1.8125 C 79.507812 -1.8125 82.90625 -3.628906 82.90625 -7.265625 C 82.90625 -9.566406 81.390625 -13.328125 78.359375 -18.546875 L 55.625 -58.53125 L 28.546875 -18.171875 C 25.023438 -12.960938 23.265625 -9.207031 23.265625 -6.90625 C 23.265625 -4.96875 24.144531 -3.632812 25.90625 -2.90625 C 27.664062 -2.175781 30.421875 -1.8125 34.171875 -1.8125 L 44.90625 -1.8125 L 44.90625 0 Z M 1.640625 0 "/></g></g></g><g fill="#3b3937" fill-opacity="1"><g transform="translate(69.684617, 216.929235)"><g><path d="M 6.359375 0 L 6.359375 -1.8125 L 10.1875 -1.8125 C 14.425781 -1.8125 17.726562 -2.78125 20.09375 -4.71875 C 22.457031 -6.664062 23.640625 -9.878906 23.640625 -14.359375 L 23.640625 -115.984375 C 23.640625 -120.222656 22.457031 -123.28125 20.09375 -125.15625 C 17.726562 -127.039062 14.425781 -127.984375 10.1875 -127.984375 L 6.359375 -127.984375 L 6.359375 -129.796875 L 62 -129.796875 L 62 -127.984375 L 58.171875 -127.984375 C 53.804688 -127.984375 50.472656 -127.015625 48.171875 -125.078125 C 45.867188 -123.140625 44.71875 -119.867188 44.71875 -115.265625 L 44.71875 -55.453125 L 89.8125 -105.8125 C 96.476562 -112.957031 99.8125 -118.285156 99.8125 -121.796875 C 99.8125 -124.109375 98.414062 -125.6875 95.625 -126.53125 C 92.832031 -127.375 88.410156 -127.796875 82.359375 -127.796875 L 82.359375 -129.796875 L 123.796875 -129.796875 L 123.796875 -127.796875 C 121.015625 -127.796875 118.347656 -127.34375 115.796875 -126.4375 C 113.253906 -125.53125 110.53125 -123.863281 107.625 -121.4375 C 104.71875 -119.007812 101.203125 -115.492188 97.078125 -110.890625 L 69.453125 -80.171875 L 108.53125 -22.90625 C 112.289062 -17.445312 115.410156 -13.171875 117.890625 -10.078125 C 120.378906 -6.992188 122.5625 -4.84375 124.4375 -3.625 C 126.3125 -2.414062 128.222656 -1.8125 130.171875 -1.8125 L 130.53125 -1.8125 L 130.53125 0 L 126.34375 0 C 120.039062 0 114.859375 -0.269531 110.796875 -0.8125 C 106.742188 -1.363281 103.382812 -2.273438 100.71875 -3.546875 C 98.050781 -4.816406 95.742188 -6.507812 93.796875 -8.625 C 91.859375 -10.75 89.800781 -13.390625 87.625 -16.546875 L 55.453125 -64.53125 L 44.71875 -52.546875 L 44.71875 -14.546875 C 44.71875 -9.941406 45.867188 -6.664062 48.171875 -4.71875 C 50.472656 -2.78125 53.804688 -1.8125 58.171875 -1.8125 L 62 -1.8125 L 62 0 Z M 6.359375 0 "/></g></g></g><g fill="#3b3937" fill-opacity="1"><g transform="translate(91.865848, 287.684563)"><g><path d="M 1.988281 -2.421875 C 2.65625 -2.261719 3.109375 -2.089844 3.351562 -1.890625 C 3.519531 -1.753906 3.601562 -1.582031 3.601562 -1.371094 C 3.601562 -1.15625 3.554688 -0.984375 3.464844 -0.863281 C 3.238281 -0.542969 2.832031 -0.386719 2.253906 -0.386719 C 1.453125 -0.386719 1 -0.660156 0.902344 -1.203125 L 0.28125 -1.203125 C 0.460938 -0.332031 1.121094 0.0976562 2.253906 0.0976562 C 2.761719 0.0976562 3.1875 -0.0078125 3.527344 -0.234375 C 3.933594 -0.5 4.148438 -0.894531 4.148438 -1.40625 C 4.148438 -1.832031 3.980469 -2.15625 3.648438 -2.382812 C 3.414062 -2.550781 3.035156 -2.703125 2.511719 -2.835938 C 1.984375 -2.972656 1.640625 -3.085938 1.484375 -3.171875 C 1.136719 -3.34375 0.960938 -3.585938 0.96875 -3.90625 C 0.96875 -4.070312 1 -4.214844 1.074219 -4.320312 C 1.269531 -4.617188 1.621094 -4.765625 2.117188 -4.765625 C 2.824219 -4.765625 3.222656 -4.539062 3.328125 -4.101562 L 3.90625 -4.101562 C 3.714844 -4.84375 3.117188 -5.222656 2.117188 -5.222656 C 1.664062 -5.222656 1.265625 -5.101562 0.929688 -4.859375 C 0.589844 -4.617188 0.417969 -4.261719 0.417969 -3.777344 C 0.417969 -3.117188 0.945312 -2.664062 1.988281 -2.421875 Z M 1.988281 -2.421875 "/></g></g></g><g fill="#3b3937" fill-opacity="1"><g transform="translate(102.020962, 287.684563)"><g><path d="M 1.097656 0 L 1.097656 -2.414062 L 2.832031 0 L 3.511719 0 L 1.621094 -2.574219 L 3.511719 -5.144531 L 2.832031 -5.144531 L 1.097656 -2.722656 L 1.097656 -5.144531 L 0.566406 -5.144531 L 0.566406 0 Z M 1.097656 0 "/></g></g></g><g fill="#3b3937" fill-opacity="1"><g transform="translate(111.419354, 287.684563)"><g><path d="M 1.097656 0 L 1.097656 -5.144531 L 0.566406 -5.144531 L 0.566406 0 Z M 1.097656 0 "/></g></g></g><g fill="#3b3937" fill-opacity="1"><g transform="translate(118.895685, 287.684563)"><g><path d="M 1.097656 -3.792969 L 3.988281 0.316406 L 3.988281 -5.144531 L 3.457031 -5.144531 L 3.457031 -1.363281 L 0.566406 -5.472656 L 0.566406 0 L 1.097656 0 Z M 1.097656 -3.792969 "/></g></g></g><g fill="#3b3937" fill-opacity="1"><g transform="translate(129.262677, 287.684563)"><g><path d="M 5.289062 -1.574219 L 4.707031 -1.574219 C 4.523438 -1.242188 4.277344 -0.96875 3.957031 -0.773438 C 3.640625 -0.566406 3.285156 -0.46875 2.90625 -0.46875 C 2.339844 -0.46875 1.855469 -0.671875 1.453125 -1.097656 C 1.058594 -1.5 0.871094 -1.988281 0.871094 -2.566406 C 0.871094 -3.140625 1.058594 -3.632812 1.453125 -4.039062 C 1.632812 -4.230469 1.855469 -4.382812 2.105469 -4.496094 C 2.347656 -4.609375 2.589844 -4.667969 2.832031 -4.667969 C 3.066406 -4.667969 3.269531 -4.636719 3.449219 -4.585938 C 4.003906 -4.417969 4.417969 -4.085938 4.699219 -3.578125 L 5.28125 -3.578125 C 5.085938 -4.0625 4.773438 -4.457031 4.34375 -4.757812 C 3.90625 -5.0625 3.429688 -5.214844 2.90625 -5.214844 C 2.1875 -5.214844 1.582031 -4.949219 1.082031 -4.425781 C 0.847656 -4.183594 0.664062 -3.898438 0.539062 -3.578125 C 0.402344 -3.261719 0.339844 -2.921875 0.339844 -2.566406 C 0.339844 -1.839844 0.582031 -1.226562 1.082031 -0.710938 C 1.582031 -0.179688 2.1875 0.0742188 2.90625 0.0742188 C 3.429688 0.0742188 3.90625 -0.0742188 4.351562 -0.378906 C 4.78125 -0.679688 5.09375 -1.074219 5.289062 -1.574219 Z M 5.289062 -1.574219 "/></g></g></g><g fill="#3b3937" fill-opacity="1"><g transform="translate(140.590707, 287.684563)"><g><path d="M 1.398438 -1.890625 L 2.339844 -4.261719 L 3.269531 -1.890625 Z M 4.59375 0 L 2.339844 -5.5 L 0.0742188 0 L 0.652344 0 L 1.203125 -1.398438 L 3.464844 -1.398438 L 4.019531 0 Z M 4.59375 0 "/></g></g></g><g fill="#3b3937" fill-opacity="1"><g transform="translate(151.071214, 287.684563)"><g><path d="M 1.097656 -2.542969 L 1.097656 -4.636719 L 2.292969 -4.636719 C 2.601562 -4.636719 2.851562 -4.539062 3.042969 -4.34375 C 3.222656 -4.148438 3.320312 -3.90625 3.320312 -3.601562 C 3.320312 -3.300781 3.222656 -3.050781 3.027344 -2.84375 C 2.832031 -2.640625 2.589844 -2.542969 2.292969 -2.542969 Z M 3.851562 -3.59375 C 3.851562 -4.035156 3.683594 -4.410156 3.367188 -4.707031 C 3.058594 -4.996094 2.671875 -5.144531 2.21875 -5.144531 L 0.566406 -5.144531 L 0.566406 0 L 1.097656 0 L 1.097656 -2.035156 L 1.710938 -2.035156 L 3.222656 0 L 3.933594 0 L 2.347656 -2.035156 C 2.746094 -2.058594 3.085938 -2.203125 3.367188 -2.46875 C 3.683594 -2.761719 3.851562 -3.140625 3.851562 -3.59375 Z M 3.851562 -3.59375 "/></g></g></g><g fill="#3b3937" fill-opacity="1"><g transform="translate(160.999315, 287.684563)"><g><path d="M 3.625 0 L 3.625 -0.492188 L 1.097656 -0.492188 L 1.097656 -2.324219 L 3.550781 -2.324219 L 3.550781 -2.824219 L 1.097656 -2.824219 L 1.097656 -4.652344 L 3.625 -4.652344 L 3.625 -5.144531 L 0.566406 -5.144531 L 0.566406 0 Z M 3.625 0 "/></g></g></g><g fill="#3b3937" fill-opacity="1"><g transform="translate(171.003085, 287.684563)"><g><path d="M 1.996094 -2.589844 C 1.996094 -2.824219 1.90625 -3.027344 1.742188 -3.191406 C 1.574219 -3.359375 1.371094 -3.449219 1.136719 -3.449219 C 0.894531 -3.449219 0.6875 -3.359375 0.523438 -3.191406 C 0.355469 -3.027344 0.273438 -2.824219 0.273438 -2.589844 C 0.273438 -2.347656 0.355469 -2.140625 0.523438 -1.976562 C 0.6875 -1.808594 0.894531 -1.726562 1.136719 -1.726562 C 1.371094 -1.726562 1.574219 -1.808594 1.742188 -1.976562 C 1.90625 -2.140625 1.996094 -2.347656 1.996094 -2.589844 Z M 1.996094 -2.589844 "/></g></g></g><g fill="#3b3937" fill-opacity="1"><g transform="translate(179.084792, 287.684563)"><g><path d="M 3.625 -4.652344 L 3.625 -5.144531 L 0.566406 -5.144531 L 0.566406 0 L 1.097656 0 L 1.097656 -2.324219 L 3.550781 -2.324219 L 3.550781 -2.824219 L 1.097656 -2.824219 L 1.097656 -4.652344 Z M 3.625 -4.652344 "/></g></g></g><g fill="#3b3937" fill-opacity="1"><g transform="translate(188.672367, 287.684563)"><g><path d="M 1.398438 -1.890625 L 2.339844 -4.261719 L 3.269531 -1.890625 Z M 4.59375 0 L 2.339844 -5.5 L 0.0742188 0 L 0.652344 0 L 1.203125 -1.398438 L 3.464844 -1.398438 L 4.019531 0 Z M 4.59375 0 "/></g></g></g><g fill="#3b3937" fill-opacity="1"><g transform="translate(199.152874, 287.684563)"><g><path d="M 1.988281 -2.421875 C 2.65625 -2.261719 3.109375 -2.089844 3.351562 -1.890625 C 3.519531 -1.753906 3.601562 -1.582031 3.601562 -1.371094 C 3.601562 -1.15625 3.554688 -0.984375 3.464844 -0.863281 C 3.238281 -0.542969 2.832031 -0.386719 2.253906 -0.386719 C 1.453125 -0.386719 1 -0.660156 0.902344 -1.203125 L 0.28125 -1.203125 C 0.460938 -0.332031 1.121094 0.0976562 2.253906 0.0976562 C 2.761719 0.0976562 3.1875 -0.0078125 3.527344 -0.234375 C 3.933594 -0.5 4.148438 -0.894531 4.148438 -1.40625 C 4.148438 -1.832031 3.980469 -2.15625 3.648438 -2.382812 C 3.414062 -2.550781 3.035156 -2.703125 2.511719 -2.835938 C 1.984375 -2.972656 1.640625 -3.085938 1.484375 -3.171875 C 1.136719 -3.34375 0.960938 -3.585938 0.96875 -3.90625 C 0.96875 -4.070312 1 -4.214844 1.074219 -4.320312 C 1.269531 -4.617188 1.621094 -4.765625 2.117188 -4.765625 C 2.824219 -4.765625 3.222656 -4.539062 3.328125 -4.101562 L 3.90625 -4.101562 C 3.714844 -4.84375 3.117188 -5.222656 2.117188 -5.222656 C 1.664062 -5.222656 1.265625 -5.101562 0.929688 -4.859375 C 0.589844 -4.617188 0.417969 -4.261719 0.417969 -3.777344 C 0.417969 -3.117188 0.945312 -2.664062 1.988281 -2.421875 Z M 1.988281 -2.421875 "/></g></g></g><g fill="#3b3937" fill-opacity="1"><g transform="translate(209.307989, 287.684563)"><g><path d="M 1.097656 0 L 1.097656 -2.300781 L 3.433594 -2.300781 L 3.433594 0 L 3.964844 0 L 3.964844 -5.144531 L 3.433594 -5.144531 L 3.433594 -2.832031 L 1.097656 -2.832031 L 1.097656 -5.144531 L 0.566406 -5.144531 L 0.566406 0 Z M 1.097656 0 "/></g></g></g><g fill="#3b3937" fill-opacity="1"><g transform="translate(219.652285, 287.684563)"><g><path d="M 1.097656 0 L 1.097656 -5.144531 L 0.566406 -5.144531 L 0.566406 0 Z M 1.097656 0 "/></g></g></g><g fill="#3b3937" fill-opacity="1"><g transform="translate(227.128618, 287.684563)"><g><path d="M 5.101562 -2.589844 C 5.101562 -1.996094 4.886719 -1.5 4.480469 -1.089844 C 4.0625 -0.671875 3.5625 -0.46875 2.980469 -0.46875 C 2.398438 -0.46875 1.898438 -0.671875 1.492188 -1.089844 C 1.074219 -1.5 0.871094 -1.996094 0.871094 -2.589844 C 0.871094 -3.164062 1.074219 -3.664062 1.492188 -4.078125 C 1.898438 -4.488281 2.398438 -4.699219 2.980469 -4.699219 C 3.5625 -4.699219 4.0625 -4.488281 4.480469 -4.078125 C 4.886719 -3.664062 5.101562 -3.164062 5.101562 -2.589844 Z M 5.628906 -2.589844 C 5.628906 -2.953125 5.554688 -3.292969 5.417969 -3.617188 C 5.28125 -3.933594 5.09375 -4.214844 4.851562 -4.457031 C 4.609375 -4.691406 4.328125 -4.878906 4.011719 -5.015625 C 3.683594 -5.152344 3.34375 -5.230469 2.980469 -5.230469 C 2.617188 -5.230469 2.269531 -5.152344 1.953125 -5.015625 C 1.632812 -4.878906 1.355469 -4.691406 1.113281 -4.457031 C 0.871094 -4.214844 0.679688 -3.933594 0.542969 -3.617188 C 0.410156 -3.292969 0.339844 -2.953125 0.339844 -2.589844 C 0.339844 -2.226562 0.410156 -1.875 0.542969 -1.558594 C 0.679688 -1.234375 0.871094 -0.953125 1.113281 -0.710938 C 1.355469 -0.46875 1.632812 -0.28125 1.953125 -0.144531 C 2.269531 -0.0078125 2.617188 0.0585938 2.980469 0.0585938 C 3.34375 0.0585938 3.683594 -0.0078125 4.011719 -0.144531 C 4.328125 -0.28125 4.609375 -0.46875 4.851562 -0.710938 C 5.09375 -0.953125 5.28125 -1.234375 5.417969 -1.558594 C 5.554688 -1.875 5.628906 -2.226562 5.628906 -2.589844 Z M 5.628906 -2.589844 "/></g></g></g><g fill="#3b3937" fill-opacity="1"><g transform="translate(238.910677, 287.684563)"><g><path d="M 1.097656 -3.792969 L 3.988281 0.316406 L 3.988281 -5.144531 L 3.457031 -5.144531 L 3.457031 -1.363281 L 0.566406 -5.472656 L 0.566406 0 L 1.097656 0 Z M 1.097656 -3.792969 "/></g></g></g><g fill="#3b3937" fill-opacity="1"><g transform="translate(249.277671, 287.684563)"><g><path d="M 1.996094 -2.589844 C 1.996094 -2.824219 1.90625 -3.027344 1.742188 -3.191406 C 1.574219 -3.359375 1.371094 -3.449219 1.136719 -3.449219 C 0.894531 -3.449219 0.6875 -3.359375 0.523438 -3.191406 C 0.355469 -3.027344 0.273438 -2.824219 0.273438 -2.589844 C 0.273438 -2.347656 0.355469 -2.140625 0.523438 -1.976562 C 0.6875 -1.808594 0.894531 -1.726562 1.136719 -1.726562 C 1.371094 -1.726562 1.574219 -1.808594 1.742188 -1.976562 C 1.90625 -2.140625 1.996094 -2.347656 1.996094 -2.589844 Z M 1.996094 -2.589844 "/></g></g></g><g fill="#3b3937" fill-opacity="1"><g transform="translate(257.359378, 287.684563)"><g><path d="M 4.5625 -2.574219 C 4.5625 -2.945312 4.488281 -3.285156 4.351562 -3.601562 C 4.214844 -3.917969 4.027344 -4.191406 3.792969 -4.417969 C 3.550781 -4.644531 3.269531 -4.820312 2.953125 -4.949219 C 2.625 -5.078125 2.277344 -5.144531 1.914062 -5.144531 L 0.566406 -5.144531 L 0.566406 0 L 1.914062 0 C 2.277344 0 2.625 -0.0585938 2.953125 -0.1875 C 3.269531 -0.316406 3.550781 -0.5 3.792969 -0.726562 C 4.027344 -0.953125 4.214844 -1.21875 4.351562 -1.535156 C 4.488281 -1.855469 4.5625 -2.195312 4.5625 -2.574219 Z M 4.046875 -2.574219 C 4.046875 -1.984375 3.835938 -1.492188 3.429688 -1.105469 C 3.019531 -0.71875 2.519531 -0.53125 1.929688 -0.53125 L 1.097656 -0.53125 L 1.097656 -4.617188 L 1.929688 -4.617188 C 2.519531 -4.617188 3.019531 -4.417969 3.429688 -4.039062 C 3.835938 -3.648438 4.046875 -3.15625 4.046875 -2.574219 Z M 4.046875 -2.574219 "/></g></g></g><g fill="#3b3937" fill-opacity="1"><g transform="translate(268.074471, 287.684563)"><g><path d="M 3.625 0 L 3.625 -0.492188 L 1.097656 -0.492188 L 1.097656 -2.324219 L 3.550781 -2.324219 L 3.550781 -2.824219 L 1.097656 -2.824219 L 1.097656 -4.652344 L 3.625 -4.652344 L 3.625 -5.144531 L 0.566406 -5.144531 L 0.566406 0 Z M 3.625 0 "/></g></g></g><g fill="#3b3937" fill-opacity="1"><g transform="translate(278.078241, 287.684563)"><g><path d="M 5.289062 -1.574219 L 4.707031 -1.574219 C 4.523438 -1.242188 4.277344 -0.96875 3.957031 -0.773438 C 3.640625 -0.566406 3.285156 -0.46875 2.90625 -0.46875 C 2.339844 -0.46875 1.855469 -0.671875 1.453125 -1.097656 C 1.058594 -1.5 0.871094 -1.988281 0.871094 -2.566406 C 0.871094 -3.140625 1.058594 -3.632812 1.453125 -4.039062 C 1.632812 -4.230469 1.855469 -4.382812 2.105469 -4.496094 C 2.347656 -4.609375 2.589844 -4.667969 2.832031 -4.667969 C 3.066406 -4.667969 3.269531 -4.636719 3.449219 -4.585938 C 4.003906 -4.417969 4.417969 -4.085938 4.699219 -3.578125 L 5.28125 -3.578125 C 5.085938 -4.0625 4.773438 -4.457031 4.34375 -4.757812 C 3.90625 -5.0625 3.429688 -5.214844 2.90625 -5.214844 C 2.1875 -5.214844 1.582031 -4.949219 1.082031 -4.425781 C 0.847656 -4.183594 0.664062 -3.898438 0.539062 -3.578125 C 0.402344 -3.261719 0.339844 -2.921875 0.339844 -2.566406 C 0.339844 -1.839844 0.582031 -1.226562 1.082031 -0.710938 C 1.582031 -0.179688 2.1875 0.0742188 2.90625 0.0742188 C 3.429688 0.0742188 3.90625 -0.0742188 4.351562 -0.378906 C 4.78125 -0.679688 5.09375 -1.074219 5.289062 -1.574219 Z M 5.289062 -1.574219 "/></g></g></g><g fill="#3b3937" fill-opacity="1"><g transform="translate(289.406261, 287.684563)"><g><path d="M 5.101562 -2.589844 C 5.101562 -1.996094 4.886719 -1.5 4.480469 -1.089844 C 4.0625 -0.671875 3.5625 -0.46875 2.980469 -0.46875 C 2.398438 -0.46875 1.898438 -0.671875 1.492188 -1.089844 C 1.074219 -1.5 0.871094 -1.996094 0.871094 -2.589844 C 0.871094 -3.164062 1.074219 -3.664062 1.492188 -4.078125 C 1.898438 -4.488281 2.398438 -4.699219 2.980469 -4.699219 C 3.5625 -4.699219 4.0625 -4.488281 4.480469 -4.078125 C 4.886719 -3.664062 5.101562 -3.164062 5.101562 -2.589844 Z M 5.628906 -2.589844 C 5.628906 -2.953125 5.554688 -3.292969 5.417969 -3.617188 C 5.28125 -3.933594 5.09375 -4.214844 4.851562 -4.457031 C 4.609375 -4.691406 4.328125 -4.878906 4.011719 -5.015625 C 3.683594 -5.152344 3.34375 -5.230469 2.980469 -5.230469 C 2.617188 -5.230469 2.269531 -5.152344 1.953125 -5.015625 C 1.632812 -4.878906 1.355469 -4.691406 1.113281 -4.457031 C 0.871094 -4.214844 0.679688 -3.933594 0.542969 -3.617188 C 0.410156 -3.292969 0.339844 -2.953125 0.339844 -2.589844 C 0.339844 -2.226562 0.410156 -1.875 0.542969 -1.558594 C 0.679688 -1.234375 0.871094 -0.953125 1.113281 -0.710938 C 1.355469 -0.46875 1.632812 -0.28125 1.953125 -0.144531 C 2.269531 -0.0078125 2.617188 0.0585938 2.980469 0.0585938 C 3.34375 0.0585938 3.683594 -0.0078125 4.011719 -0.144531 C 4.328125 -0.28125 4.609375 -0.46875 4.851562 -0.710938 C 5.09375 -0.953125 5.28125 -1.234375 5.417969 -1.558594 C 5.554688 -1.875 5.628906 -2.226562 5.628906 -2.589844 Z M 5.628906 -2.589844 "/></g></g></g><g fill="#3b3937" fill-opacity="1"><g transform="translate(301.188311, 287.684563)"><g><path d="M 1.097656 -2.542969 L 1.097656 -4.636719 L 2.292969 -4.636719 C 2.601562 -4.636719 2.851562 -4.539062 3.042969 -4.34375 C 3.222656 -4.148438 3.320312 -3.90625 3.320312 -3.601562 C 3.320312 -3.300781 3.222656 -3.050781 3.027344 -2.84375 C 2.832031 -2.640625 2.589844 -2.542969 2.292969 -2.542969 Z M 3.851562 -3.59375 C 3.851562 -4.035156 3.683594 -4.410156 3.367188 -4.707031 C 3.058594 -4.996094 2.671875 -5.144531 2.21875 -5.144531 L 0.566406 -5.144531 L 0.566406 0 L 1.097656 0 L 1.097656 -2.035156 L 1.710938 -2.035156 L 3.222656 0 L 3.933594 0 L 2.347656 -2.035156 C 2.746094 -2.058594 3.085938 -2.203125 3.367188 -2.46875 C 3.683594 -2.761719 3.851562 -3.140625 3.851562 -3.59375 Z M 3.851562 -3.59375 "/></g></g></g><g clip-path="url(#e520432d8e)"><path fill="#e77578" d="M 33.507812 200.605469 L 350.800781 200.605469 L 350.800781 237.679688 L 33.507812 237.679688 Z M 33.507812 200.605469 " fill-opacity="1" fill-rule="nonzero"/></g><g fill="#f4f4f4" fill-opacity="1"><g transform="translate(101.066665, 227.124491)"><g><path d="M 4.96875 -0.15625 C 9.28125 -0.484375 19.71875 -4.484375 20.03125 -12.367188 C 20.078125 -14.265625 19.15625 -16.050781 17.570312 -17.117188 C 14.953125 -19.0625 10.957031 -19.53125 7.398438 -18.292969 C 3.277344 -16.882812 0.644531 -14.34375 0.328125 -11.503906 C 0.09375 -9.75 0.941406 -8.011719 2.460938 -7.101562 C 3.558594 -6.457031 4.84375 -6.175781 6.097656 -6.316406 C 6.175781 -6.332031 6.253906 -6.300781 6.300781 -6.238281 C 6.347656 -6.175781 6.363281 -6.097656 6.347656 -6.035156 C 5.722656 -4.042969 5.0625 -2.054688 4.546875 -0.722656 C 4.5 -0.59375 4.515625 -0.453125 4.59375 -0.328125 C 4.671875 -0.21875 4.796875 -0.15625 4.9375 -0.15625 Z M 7.257812 -6.207031 C 7.320312 -6.394531 7.476562 -6.550781 7.679688 -6.613281 C 8.949219 -6.976562 10.140625 -7.523438 11.222656 -8.246094 C 11.347656 -8.324219 11.425781 -8.464844 11.410156 -8.621094 C 11.410156 -8.761719 11.316406 -8.902344 11.191406 -8.964844 C 11.050781 -9.027344 10.894531 -9.027344 10.769531 -8.933594 C 9.921875 -8.386719 9.011719 -7.929688 8.058594 -7.585938 C 7.980469 -7.554688 7.882812 -7.585938 7.820312 -7.648438 C 7.773438 -7.695312 7.742188 -7.789062 7.773438 -7.867188 C 8.605469 -10.628906 9.28125 -12.949219 9.296875 -12.980469 C 9.34375 -13.167969 9.265625 -13.371094 9.089844 -13.449219 C 8.933594 -13.542969 8.730469 -13.511719 8.589844 -13.371094 C 7.898438 -12.632812 6.773438 -12.476562 5.910156 -13.011719 C 5.722656 -13.136719 5.46875 -13.074219 5.34375 -12.886719 C 5.21875 -12.679688 5.28125 -12.429688 5.484375 -12.304688 C 6.160156 -11.867188 7.007812 -11.742188 7.773438 -11.960938 C 7.851562 -11.992188 7.945312 -11.976562 8.011719 -11.914062 C 8.058594 -11.867188 8.089844 -11.773438 8.058594 -11.695312 C 7.742188 -10.644531 7.304688 -9.136719 6.820312 -7.539062 C 6.757812 -7.351562 6.582031 -7.210938 6.394531 -7.179688 C 5.1875 -6.976562 3.949219 -7.195312 2.898438 -7.789062 C 1.644531 -8.542969 0.957031 -9.96875 1.144531 -11.425781 C 1.410156 -13.933594 3.855469 -16.207031 7.664062 -17.523438 C 10.988281 -18.667969 14.671875 -18.246094 17.085938 -16.457031 C 18.433594 -15.566406 19.234375 -14.027344 19.21875 -12.398438 C 18.949219 -5.707031 10.359375 -1.914062 5.925781 -1.113281 C 5.847656 -1.097656 5.769531 -1.128906 5.722656 -1.191406 C 5.675781 -1.253906 5.660156 -1.332031 5.675781 -1.410156 C 6.160156 -2.773438 6.722656 -4.5 7.257812 -6.207031 Z M 7.257812 -6.207031 "/></g></g></g><g fill="#f4f4f4" fill-opacity="1"><g transform="translate(120.197329, 227.124491)"><g><path d="M 10.15625 -4.230469 C 9.984375 -4.390625 9.734375 -4.390625 9.578125 -4.214844 C 9.515625 -4.167969 4.4375 1.003906 1.066406 -1.457031 C 0.03125 -2.210938 1.035156 -4.167969 1.050781 -4.183594 C 1.144531 -4.390625 1.066406 -4.625 0.863281 -4.734375 C 0.660156 -4.828125 0.421875 -4.765625 0.3125 -4.5625 C 0.25 -4.46875 -1.019531 -1.976562 0.578125 -0.800781 C 1.316406 -0.25 2.226562 0.046875 3.152344 0.03125 C 6.535156 0.03125 9.96875 -3.464844 10.15625 -3.652344 C 10.234375 -3.730469 10.28125 -3.824219 10.28125 -3.933594 C 10.265625 -4.042969 10.234375 -4.152344 10.15625 -4.230469 Z M 0.140625 -5.46875 C 0.203125 -5.46875 0.265625 -5.484375 0.328125 -5.519531 C 0.707031 -5.707031 1.035156 -5.957031 1.332031 -6.253906 C 1.488281 -6.425781 1.472656 -6.675781 1.316406 -6.835938 C 1.144531 -6.992188 0.894531 -6.992188 0.738281 -6.820312 C 0.5 -6.582031 0.234375 -6.394531 -0.0625 -6.238281 C -0.21875 -6.160156 -0.3125 -5.957031 -0.265625 -5.785156 C -0.21875 -5.597656 -0.046875 -5.46875 0.140625 -5.46875 Z M 0.140625 -5.46875 "/></g></g></g><g fill="#f4f4f4" fill-opacity="1"><g transform="translate(129.817506, 227.124491)"><g><path d="M 10.910156 -4.121094 C 10.738281 -4.277344 10.472656 -4.261719 10.328125 -4.089844 C 9.089844 -2.804688 7.085938 -2.679688 5.707031 -3.792969 C 5.375 -4.027344 4.921875 -4.011719 4.625 -3.730469 C 4.453125 -3.574219 4.261719 -3.402344 4.074219 -3.199219 C 3.480469 -2.523438 3.371094 -3.089844 3.371094 -3.464844 C 3.371094 -3.792969 3.308594 -4.136719 3.199219 -4.453125 C 3.136719 -4.609375 2.976562 -4.71875 2.804688 -4.71875 C 2.632812 -4.703125 2.492188 -4.609375 2.429688 -4.4375 C 1.992188 -3.214844 1.050781 -1.425781 0.390625 -1.300781 C 0.34375 -1.285156 0.21875 -1.269531 0.03125 -1.472656 C -0.0625 -1.882812 0 -2.320312 0.203125 -2.695312 C 0.675781 -3.964844 1.832031 -4.859375 3.183594 -4.984375 C 3.417969 -5 3.589844 -5.203125 3.574219 -5.421875 C 3.558594 -5.660156 3.355469 -5.832031 3.136719 -5.816406 C 1.457031 -5.660156 0.015625 -4.5625 -0.578125 -2.976562 C -0.847656 -2.289062 -1.003906 -1.378906 -0.578125 -0.925781 C -0.296875 -0.578125 0.125 -0.421875 0.546875 -0.5 C 1.332031 -0.660156 2.039062 -1.691406 2.539062 -2.632812 C 2.507812 -2.257812 2.460938 -1.832031 2.398438 -1.394531 C 2.382812 -1.300781 2.351562 -1.222656 2.304688 -1.160156 C 0.46875 1.160156 -1.191406 3.964844 -1.222656 5.738281 C -1.269531 6.207031 -1.097656 6.675781 -0.785156 7.023438 C -0.628906 7.179688 -0.4375 7.257812 -0.234375 7.257812 C -0.0625 7.257812 0.109375 7.210938 0.25 7.117188 C 1.285156 6.425781 2.601562 2.398438 3.121094 -0.800781 C 3.136719 -0.863281 3.167969 -0.925781 3.214844 -0.988281 C 3.761719 -1.660156 4.34375 -2.304688 4.953125 -2.914062 C 5.09375 -3.054688 5.3125 -3.074219 5.46875 -2.960938 C 7.195312 -1.800781 9.484375 -2.054688 10.925781 -3.542969 C 11.066406 -3.714844 11.066406 -3.964844 10.910156 -4.121094 Z M 0.46875 5.453125 C 0.109375 6.175781 -0.015625 6.488281 -0.203125 6.425781 C -0.390625 6.378906 -0.40625 6.066406 -0.390625 5.753906 C -0.359375 4.546875 1.738281 0.453125 2.039062 0.578125 C 2.335938 0.707031 1.066406 4.214844 0.46875 5.453125 Z M 0.46875 5.453125 "/></g></g></g><g fill="#f4f4f4" fill-opacity="1"><g transform="translate(140.142743, 227.124491)"><g><path d="M 10.15625 -4.230469 C 9.984375 -4.390625 9.734375 -4.390625 9.578125 -4.214844 C 9.515625 -4.167969 4.4375 1.003906 1.066406 -1.457031 C 0.03125 -2.210938 1.035156 -4.167969 1.050781 -4.183594 C 1.144531 -4.390625 1.066406 -4.625 0.863281 -4.734375 C 0.660156 -4.828125 0.421875 -4.765625 0.3125 -4.5625 C 0.25 -4.46875 -1.019531 -1.976562 0.578125 -0.800781 C 1.316406 -0.25 2.226562 0.046875 3.152344 0.03125 C 6.535156 0.03125 9.96875 -3.464844 10.15625 -3.652344 C 10.234375 -3.730469 10.28125 -3.824219 10.28125 -3.933594 C 10.265625 -4.042969 10.234375 -4.152344 10.15625 -4.230469 Z M 0.140625 -5.46875 C 0.203125 -5.46875 0.265625 -5.484375 0.328125 -5.519531 C 0.707031 -5.707031 1.035156 -5.957031 1.332031 -6.253906 C 1.488281 -6.425781 1.472656 -6.675781 1.316406 -6.835938 C 1.144531 -6.992188 0.894531 -6.992188 0.738281 -6.820312 C 0.5 -6.582031 0.234375 -6.394531 -0.0625 -6.238281 C -0.21875 -6.160156 -0.3125 -5.957031 -0.265625 -5.785156 C -0.21875 -5.597656 -0.046875 -5.46875 0.140625 -5.46875 Z M 0.140625 -5.46875 "/></g></g></g><g fill="#f4f4f4" fill-opacity="1"><g transform="translate(149.762921, 227.124491)"><g><path d="M 10.753906 -4.261719 C 10.597656 -4.421875 10.328125 -4.421875 10.171875 -4.246094 C 10.140625 -4.214844 5.894531 0.0625 3.074219 -1.003906 C 1.816406 -1.488281 1.285156 -2.945312 1.082031 -4.390625 C 1.363281 -5.078125 1.832031 -6.222656 2.273438 -7.507812 C 2.320312 -7.664062 2.367188 -7.679688 2.554688 -7.695312 C 4.671875 -7.851562 6.773438 -7.929688 8.011719 -7.929688 C 8.246094 -7.929688 8.417969 -8.121094 8.417969 -8.339844 C 8.417969 -8.574219 8.246094 -8.746094 8.011719 -8.746094 C 6.820312 -8.746094 4.859375 -8.652344 2.851562 -8.542969 C 2.773438 -8.527344 2.632812 -8.574219 2.742188 -8.855469 C 3.496094 -11.003906 4.027344 -13.183594 3.699219 -13.839844 C 3.371094 -14.5 2.929688 -14.515625 2.710938 -14.46875 C 1.550781 -14.25 0.707031 -11.238281 0.328125 -8.777344 C 0.296875 -8.558594 0.1875 -8.371094 -0.015625 -8.355469 C -2.476562 -8.167969 -4.5 -8.027344 -4.53125 -8.027344 C -4.765625 -8.011719 -4.9375 -7.820312 -4.921875 -7.585938 C -4.921875 -7.367188 -4.734375 -7.179688 -4.5 -7.195312 L -4.46875 -7.195312 C -4.421875 -7.195312 -2.523438 -7.335938 -0.15625 -7.507812 C -0.078125 -7.523438 0 -7.507812 0.0625 -7.445312 C 0.125 -7.398438 0.171875 -7.320312 0.171875 -7.242188 C -0.0625 -3.511719 0.878906 -0.957031 2.773438 -0.234375 C 3.183594 -0.09375 3.605469 -0.015625 4.042969 -0.015625 C 7.148438 -0.015625 10.597656 -3.511719 10.769531 -3.667969 C 10.847656 -3.746094 10.878906 -3.855469 10.878906 -3.964844 C 10.878906 -4.074219 10.832031 -4.183594 10.753906 -4.261719 Z M 1.160156 -8.808594 C 1.519531 -11.191406 2.242188 -13.074219 2.664062 -13.558594 C 2.710938 -13.589844 2.773438 -13.605469 2.835938 -13.589844 C 2.882812 -13.574219 2.929688 -13.542969 2.960938 -13.480469 C 3.152344 -13.074219 2.617188 -11.082031 1.816406 -8.714844 C 1.785156 -8.574219 1.675781 -8.464844 1.519531 -8.449219 C 1.441406 -8.433594 1.363281 -8.433594 1.269531 -8.433594 C 1.113281 -8.433594 1.144531 -8.683594 1.160156 -8.792969 Z M 0.972656 -6.347656 C 0.816406 -6.347656 0.878906 -7.445312 1.019531 -7.601562 C 1.144531 -7.679688 1.300781 -7.695312 1.425781 -7.617188 C 1.566406 -7.492188 1.144531 -6.347656 0.972656 -6.347656 Z M 0.972656 -6.347656 "/></g></g></g><g fill="#f4f4f4" fill-opacity="1"><g transform="translate(159.774795, 227.124491)"><g><path d="M 13.105469 -3.792969 C 12.949219 -3.964844 12.679688 -3.980469 12.507812 -3.824219 C 12.460938 -3.777344 7.804688 0.40625 4.921875 -1.488281 C 3.777344 -2.242188 3.496094 -4.058594 3.496094 -4.074219 C 3.480469 -4.261719 3.339844 -4.40625 3.152344 -4.4375 C 2.976562 -4.453125 2.789062 -4.359375 2.710938 -4.199219 C 1.976562 -2.570312 0.675781 -0.5 0.3125 -0.738281 C 0.28125 -0.738281 0.21875 -0.800781 0.171875 -0.910156 C -0.015625 -1.425781 0.046875 -1.992188 0.3125 -2.476562 C 0.910156 -3.699219 2.007812 -4.578125 3.324219 -4.90625 C 3.464844 -4.9375 3.574219 -5.046875 3.621094 -5.1875 C 3.667969 -5.328125 3.621094 -5.484375 3.527344 -5.597656 C 3.417969 -5.691406 3.277344 -5.738281 3.136719 -5.707031 C 1.566406 -5.328125 0.265625 -4.261719 -0.4375 -2.820312 C -0.816406 -2.117188 -0.863281 -1.269531 -0.5625 -0.53125 C -0.421875 -0.171875 -0.078125 0.078125 0.3125 0.078125 L 0.328125 0.078125 C 1.097656 0.0625 2.054688 -0.894531 2.710938 -1.929688 C 2.789062 -2.054688 2.929688 -2.117188 3.074219 -2.101562 C 3.214844 -2.101562 3.339844 -2.023438 3.402344 -1.898438 C 3.667969 -1.457031 4.027344 -1.082031 4.46875 -0.816406 C 7.882812 1.457031 12.851562 -3.023438 13.074219 -3.214844 C 13.152344 -3.292969 13.199219 -3.402344 13.199219 -3.496094 C 13.214844 -3.605469 13.167969 -3.714844 13.105469 -3.792969 Z M 13.105469 -3.792969 "/></g></g></g><g fill="#f4f4f4" fill-opacity="1"><g transform="translate(172.434569, 227.124491)"><g><path d="M 10.785156 -4.011719 C 10.707031 -4.089844 10.597656 -4.136719 10.488281 -4.136719 C 10.375 -4.136719 10.265625 -4.089844 10.1875 -4.011719 C 10.15625 -3.980469 6.035156 0.078125 3.074219 -0.816406 C 2.023438 -1.128906 1.441406 -2.132812 1.113281 -3.199219 C 1.019531 -3.542969 1.050781 -3.917969 1.207031 -4.246094 C 2.304688 -6.472656 5 -12.304688 3.667969 -13.730469 C 3.355469 -14.125 2.835938 -14.25 2.382812 -14.058594 C 0.800781 -13.371094 -0.25 -8.746094 -0.0625 -5.375 C -0.03125 -4.859375 0.03125 -4.34375 0.125 -3.824219 C 0.125 -3.761719 0.125 -3.714844 0.15625 -3.667969 C 0.5625 -1.691406 1.488281 -0.421875 2.835938 -0.03125 C 3.214844 0.078125 3.589844 0.140625 3.964844 0.140625 C 7.148438 0.140625 10.613281 -3.277344 10.769531 -3.433594 C 10.847656 -3.511719 10.894531 -3.605469 10.894531 -3.714844 C 10.894531 -3.839844 10.863281 -3.933594 10.785156 -4.011719 Z M 0.800781 -5.613281 C 0.3125 -8.230469 1.929688 -12.980469 2.710938 -13.308594 C 2.742188 -13.324219 2.773438 -13.339844 2.804688 -13.339844 C 2.867188 -13.339844 2.945312 -13.308594 3.054688 -13.183594 C 3.683594 -12.523438 1.898438 -6.851562 1.066406 -5.519531 C 0.988281 -5.375 0.832031 -5.453125 0.800781 -5.613281 Z M 0.800781 -5.613281 "/></g></g></g><g fill="#f4f4f4" fill-opacity="1"><g transform="translate(182.759806, 227.124491)"><g/></g></g><g fill="#f4f4f4" fill-opacity="1"><g transform="translate(188.588316, 227.124491)"><g><path d="M 5.722656 0.0625 C 10.925781 -2.242188 14.109375 -9.421875 15.957031 -14.042969 C 15.972656 -14.125 16.050781 -14.15625 16.128906 -14.140625 C 16.207031 -14.125 16.253906 -14.042969 16.253906 -13.964844 C 15.691406 -9.21875 14.5625 -3.023438 14.28125 -1.535156 C 14.25 -1.363281 14.34375 -1.175781 14.515625 -1.097656 C 14.6875 -1.019531 14.890625 -1.066406 15 -1.207031 C 16.960938 -3.574219 20.472656 -9.296875 22.808594 -13.246094 C 22.855469 -13.308594 22.949219 -13.339844 23.011719 -13.308594 C 23.089844 -13.277344 23.121094 -13.199219 23.105469 -13.121094 C 21.191406 -6.144531 19.984375 -0.28125 22.273438 0.4375 C 22.492188 0.5 22.730469 0.375 22.792969 0.15625 C 22.855469 -0.0625 22.746094 -0.28125 22.523438 -0.359375 C 20.503906 -0.972656 23.402344 -11.175781 24.640625 -15.519531 C 24.8125 -16.175781 24.984375 -16.773438 25.144531 -17.320312 C 25.191406 -17.523438 25.078125 -17.726562 24.890625 -17.808594 C 24.6875 -17.886719 24.46875 -17.808594 24.375 -17.617188 C 23.839844 -16.585938 19.265625 -8.667969 16.066406 -4.027344 C 16.003906 -3.917969 15.863281 -3.886719 15.753906 -3.933594 C 15.644531 -3.980469 15.582031 -4.089844 15.597656 -4.214844 C 16.269531 -8.011719 17.289062 -14.296875 17.367188 -17.601562 C 17.382812 -17.792969 17.257812 -17.964844 17.070312 -18.011719 C 16.882812 -18.058594 16.695312 -17.964844 16.601562 -17.792969 C 16.363281 -17.335938 16.050781 -16.554688 15.660156 -15.550781 C 13.949219 -11.191406 10.753906 -3.054688 5.390625 -0.691406 C 3.824219 0 2.664062 -0.3125 2.085938 -0.832031 C 1.644531 -1.222656 1.488281 -1.832031 1.675781 -2.382812 C 2.054688 -3.496094 3.589844 -4.261719 5.769531 -4.453125 C 5.878906 -4.453125 5.972656 -4.5 6.050781 -4.59375 C 6.113281 -4.671875 6.160156 -4.78125 6.144531 -4.890625 C 6.128906 -5.109375 5.925781 -5.28125 5.707031 -5.265625 C 2.070312 -4.953125 1.128906 -3.339844 0.894531 -2.664062 C 0.59375 -1.785156 0.847656 -0.832031 1.535156 -0.21875 C 2.117188 0.28125 2.867188 0.5625 3.652344 0.53125 C 4.359375 0.515625 5.078125 0.359375 5.722656 0.0625 Z M 5.722656 0.0625 "/></g></g></g><g fill="#f4f4f4" fill-opacity="1"><g transform="translate(212.748429, 227.124491)"><g><path d="M 13.105469 -3.792969 C 12.949219 -3.964844 12.679688 -3.980469 12.507812 -3.824219 C 12.460938 -3.777344 7.804688 0.40625 4.921875 -1.488281 C 3.777344 -2.242188 3.496094 -4.058594 3.496094 -4.074219 C 3.480469 -4.261719 3.339844 -4.40625 3.152344 -4.4375 C 2.976562 -4.453125 2.789062 -4.359375 2.710938 -4.199219 C 1.976562 -2.570312 0.675781 -0.5 0.3125 -0.738281 C 0.28125 -0.738281 0.21875 -0.800781 0.171875 -0.910156 C -0.015625 -1.425781 0.046875 -1.992188 0.3125 -2.476562 C 0.910156 -3.699219 2.007812 -4.578125 3.324219 -4.90625 C 3.464844 -4.9375 3.574219 -5.046875 3.621094 -5.1875 C 3.667969 -5.328125 3.621094 -5.484375 3.527344 -5.597656 C 3.417969 -5.691406 3.277344 -5.738281 3.136719 -5.707031 C 1.566406 -5.328125 0.265625 -4.261719 -0.4375 -2.820312 C -0.816406 -2.117188 -0.863281 -1.269531 -0.5625 -0.53125 C -0.421875 -0.171875 -0.078125 0.078125 0.3125 0.078125 L 0.328125 0.078125 C 1.097656 0.0625 2.054688 -0.894531 2.710938 -1.929688 C 2.789062 -2.054688 2.929688 -2.117188 3.074219 -2.101562 C 3.214844 -2.101562 3.339844 -2.023438 3.402344 -1.898438 C 3.667969 -1.457031 4.027344 -1.082031 4.46875 -0.816406 C 7.882812 1.457031 12.851562 -3.023438 13.074219 -3.214844 C 13.152344 -3.292969 13.199219 -3.402344 13.199219 -3.496094 C 13.214844 -3.605469 13.167969 -3.714844 13.105469 -3.792969 Z M 13.105469 -3.792969 "/></g></g></g><g fill="#f4f4f4" fill-opacity="1"><g transform="translate(225.408203, 227.124491)"><g><path d="M 13.511719 -4.121094 C 13.433594 -4.199219 13.339844 -4.246094 13.230469 -4.246094 C 13.121094 -4.246094 13.011719 -4.199219 12.933594 -4.121094 C 10.21875 -1.472656 5.40625 -0.910156 4.375 -1.519531 C 3.667969 -1.929688 3.746094 -2.414062 4.246094 -3.386719 C 4.484375 -3.855469 4.75 -4.40625 4.296875 -4.734375 C 3.871094 -5.046875 3.464844 -4.84375 3.105469 -4.65625 C 2.585938 -4.359375 2.007812 -4.199219 1.394531 -4.199219 C 1.253906 -4.199219 1.128906 -4.453125 1.160156 -4.546875 C 2.039062 -6.472656 1.644531 -6.835938 1.503906 -6.976562 C 1.269531 -7.210938 0.910156 -7.195312 0.46875 -6.929688 C -0.25 -6.410156 -0.5625 -5.484375 -0.3125 -4.625 C -0.25 -4.390625 -0.140625 -4.167969 0.015625 -3.980469 C 0 -3.808594 0.078125 -3.652344 0.234375 -3.574219 C 0.328125 -3.527344 0.4375 -3.527344 0.546875 -3.558594 C 0.816406 -3.433594 1.113281 -3.371094 1.410156 -3.371094 C 2.054688 -3.355469 2.679688 -3.496094 3.246094 -3.808594 C 3.464844 -3.917969 3.542969 -3.824219 3.511719 -3.761719 C 3.136719 -3.023438 2.460938 -1.675781 3.964844 -0.800781 C 4.5 -0.546875 5.09375 -0.4375 5.691406 -0.484375 C 7.882812 -0.484375 11.332031 -1.425781 13.496094 -3.542969 C 13.574219 -3.605469 13.621094 -3.714844 13.621094 -3.824219 C 13.636719 -3.933594 13.589844 -4.042969 13.511719 -4.121094 Z M 0.453125 -4.984375 C 0.359375 -5.4375 0.515625 -5.910156 0.878906 -6.207031 C 0.769531 -5.785156 0.628906 -5.375 0.453125 -4.96875 Z M 0.453125 -4.984375 "/></g></g></g><g fill="#f4f4f4" fill-opacity="1"><g transform="translate(238.255991, 227.124491)"><g><path d="M 12.949219 -3.714844 C 12.789062 -3.871094 12.523438 -3.886719 12.351562 -3.730469 C 9.765625 -1.222656 4.578125 -0.722656 2.867188 -1.425781 C 2.617188 -1.535156 2.460938 -1.660156 2.445312 -1.753906 C 2.445312 -1.976562 2.882812 -2.554688 4.578125 -3.355469 C 4.9375 -3.449219 5.328125 -3.574219 5.34375 -3.933594 C 5.328125 -4.121094 5.21875 -4.3125 5.03125 -4.375 C 4.515625 -4.546875 2.664062 -4.027344 0.785156 -2.132812 C 0.722656 -2.070312 0.609375 -2.054688 0.53125 -2.085938 C 0.4375 -2.132812 0.390625 -2.226562 0.40625 -2.320312 C 0.453125 -2.679688 0.484375 -3.023438 0.53125 -3.371094 C 0.53125 -3.386719 0.546875 -3.386719 0.546875 -3.402344 C 1.722656 -5.28125 5.453125 -11.566406 4.390625 -13.042969 C 4.089844 -13.402344 3.605469 -13.542969 3.167969 -13.371094 C 0.816406 -12.789062 -0.09375 -6.113281 -0.609375 -0.34375 C -0.628906 -0.15625 -0.515625 0.015625 -0.34375 0.078125 C -0.171875 0.140625 0.015625 0.078125 0.125 -0.078125 C 0.53125 -0.660156 0.988281 -1.207031 1.503906 -1.691406 C 1.566406 -1.769531 1.628906 -1.753906 1.628906 -1.738281 C 1.628906 -1.410156 1.800781 -0.972656 2.554688 -0.660156 C 4.484375 0.125 10.0625 -0.359375 12.933594 -3.136719 C 13.011719 -3.214844 13.058594 -3.308594 13.058594 -3.417969 C 13.058594 -3.527344 13.011719 -3.636719 12.949219 -3.714844 Z M 3.371094 -12.570312 C 3.433594 -12.585938 3.511719 -12.601562 3.589844 -12.601562 C 3.652344 -12.601562 3.699219 -12.585938 3.714844 -12.554688 C 4.042969 -12.117188 3.214844 -9.734375 1.347656 -6.363281 C 1.300781 -6.285156 1.191406 -6.253906 1.113281 -6.285156 C 1.019531 -6.316406 0.957031 -6.410156 0.972656 -6.503906 C 1.753906 -11.082031 2.664062 -12.398438 3.371094 -12.570312 Z M 3.371094 -12.570312 "/></g></g></g><g fill="#f4f4f4" fill-opacity="1"><g transform="translate(250.602403, 227.124491)"><g><path d="M 13.152344 -4.027344 C 13.074219 -4.105469 12.980469 -4.167969 12.871094 -4.167969 C 12.757812 -4.183594 12.648438 -4.152344 12.570312 -4.089844 C 12.507812 -4.042969 6.472656 0.753906 1.441406 -1.316406 C 0.421875 -1.738281 0.375 -2.289062 0.40625 -2.585938 C 0.40625 -2.632812 0.421875 -2.679688 0.46875 -2.710938 C 0.5 -2.742188 0.5625 -2.742188 0.609375 -2.726562 C 1.628906 -2.664062 2.648438 -2.929688 3.527344 -3.480469 C 4.277344 -3.964844 4.40625 -4.5 4.359375 -4.84375 C 4.328125 -5.40625 3.871094 -5.863281 3.292969 -5.878906 C 2.054688 -5.941406 -0.015625 -4.46875 -0.359375 -2.898438 C -0.5 -2.320312 -0.484375 -1.222656 1.128906 -0.5625 C 2.117188 -0.15625 3.152344 0.03125 4.199219 0.03125 C 8.699219 0.03125 12.871094 -3.277344 13.089844 -3.449219 C 13.167969 -3.511719 13.230469 -3.621094 13.230469 -3.714844 C 13.246094 -3.824219 13.214844 -3.933594 13.152344 -4.027344 Z M 0.972656 -3.683594 C 1.582031 -4.53125 2.601562 -5.09375 3.246094 -5.046875 C 3.417969 -5.046875 3.511719 -4.984375 3.542969 -4.75 C 3.558594 -4.59375 3.386719 -4.375 3.074219 -4.167969 C 2.429688 -3.746094 0.5 -3.054688 0.972656 -3.683594 Z M 0.972656 -3.683594 "/></g></g></g><g fill="#f4f4f4" fill-opacity="1"><g transform="translate(263.152497, 227.124491)"><g><path d="M 10.753906 -4.261719 C 10.597656 -4.421875 10.328125 -4.421875 10.171875 -4.246094 C 10.140625 -4.214844 5.894531 0.0625 3.074219 -1.003906 C 1.816406 -1.488281 1.285156 -2.945312 1.082031 -4.390625 C 1.363281 -5.078125 1.832031 -6.222656 2.273438 -7.507812 C 2.320312 -7.664062 2.367188 -7.679688 2.554688 -7.695312 C 4.671875 -7.851562 6.773438 -7.929688 8.011719 -7.929688 C 8.246094 -7.929688 8.417969 -8.121094 8.417969 -8.339844 C 8.417969 -8.574219 8.246094 -8.746094 8.011719 -8.746094 C 6.820312 -8.746094 4.859375 -8.652344 2.851562 -8.542969 C 2.773438 -8.527344 2.632812 -8.574219 2.742188 -8.855469 C 3.496094 -11.003906 4.027344 -13.183594 3.699219 -13.839844 C 3.371094 -14.5 2.929688 -14.515625 2.710938 -14.46875 C 1.550781 -14.25 0.707031 -11.238281 0.328125 -8.777344 C 0.296875 -8.558594 0.1875 -8.371094 -0.015625 -8.355469 C -2.476562 -8.167969 -4.5 -8.027344 -4.53125 -8.027344 C -4.765625 -8.011719 -4.9375 -7.820312 -4.921875 -7.585938 C -4.921875 -7.367188 -4.734375 -7.179688 -4.5 -7.195312 L -4.46875 -7.195312 C -4.421875 -7.195312 -2.523438 -7.335938 -0.15625 -7.507812 C -0.078125 -7.523438 0 -7.507812 0.0625 -7.445312 C 0.125 -7.398438 0.171875 -7.320312 0.171875 -7.242188 C -0.0625 -3.511719 0.878906 -0.957031 2.773438 -0.234375 C 3.183594 -0.09375 3.605469 -0.015625 4.042969 -0.015625 C 7.148438 -0.015625 10.597656 -3.511719 10.769531 -3.667969 C 10.847656 -3.746094 10.878906 -3.855469 10.878906 -3.964844 C 10.878906 -4.074219 10.832031 -4.183594 10.753906 -4.261719 Z M 1.160156 -8.808594 C 1.519531 -11.191406 2.242188 -13.074219 2.664062 -13.558594 C 2.710938 -13.589844 2.773438 -13.605469 2.835938 -13.589844 C 2.882812 -13.574219 2.929688 -13.542969 2.960938 -13.480469 C 3.152344 -13.074219 2.617188 -11.082031 1.816406 -8.714844 C 1.785156 -8.574219 1.675781 -8.464844 1.519531 -8.449219 C 1.441406 -8.433594 1.363281 -8.433594 1.269531 -8.433594 C 1.113281 -8.433594 1.144531 -8.683594 1.160156 -8.792969 Z M 0.972656 -6.347656 C 0.816406 -6.347656 0.878906 -7.445312 1.019531 -7.601562 C 1.144531 -7.679688 1.300781 -7.695312 1.425781 -7.617188 C 1.566406 -7.492188 1.144531 -6.347656 0.972656 -6.347656 Z M 0.972656 -6.347656 "/></g></g></g></svg>