<svg xmlns="http://www.w3.org/2000/svg" xmlns:xlink="http://www.w3.org/1999/xlink" width="1366" zoomAndPan="magnify" viewBox="0 0 1024.5 576" height="768" preserveAspectRatio="xMidYMid meet" version="1.0"><defs><clipPath id="dddf9a5c9d"><path d="M 289.425781 82.316406 L 398.464844 82.316406 L 398.464844 206.785156 L 289.425781 206.785156 Z M 289.425781 82.316406 " clip-rule="nonzero"/></clipPath><clipPath id="ca367334f4"><path d="M 449.65625 82.316406 L 558.695312 82.316406 L 558.695312 203.699219 L 449.65625 203.699219 Z M 449.65625 82.316406 " clip-rule="nonzero"/></clipPath><clipPath id="c9858d0895"><path d="M 609.699219 78.792969 L 734.164062 78.792969 L 734.164062 203.257812 L 609.699219 203.257812 Z M 609.699219 78.792969 " clip-rule="nonzero"/></clipPath><clipPath id="8e7f85de58"><path d="M 370.8125 242 L 475.738281 242 L 475.738281 336 L 370.8125 336 Z M 370.8125 242 " clip-rule="nonzero"/></clipPath><clipPath id="b0324c81d4"><path d="M 558.265625 242.816406 L 652.902344 242.816406 L 652.902344 337.453125 L 558.265625 337.453125 Z M 558.265625 242.816406 " clip-rule="nonzero"/></clipPath><clipPath id="aae1127c3a"><path d="M 460 385 L 621 385 L 621 446.476562 L 460 446.476562 Z M 460 385 " clip-rule="nonzero"/></clipPath><clipPath id="772f81a9ce"><path d="M 526 349.785156 L 583 349.785156 L 583 446.476562 L 526 446.476562 Z M 526 349.785156 " clip-rule="nonzero"/></clipPath><clipPath id="a4b355155b"><path d="M 460 385 L 517 385 L 517 446.476562 L 460 446.476562 Z M 460 385 " clip-rule="nonzero"/></clipPath><clipPath id="d49a8af2e2"><path d="M 399 385 L 644 385 L 644 446.476562 L 399 446.476562 Z M 399 385 " clip-rule="nonzero"/></clipPath></defs><g clip-path="url(#dddf9a5c9d)"><path fill="#d80d68" d="M 299.453125 194.234375 L 289.523438 82.902344 L 398.589844 82.902344 L 388.65625 194.210938 L 343.992188 206.597656 Z M 299.453125 194.234375 " fill-opacity="1" fill-rule="nonzero"/></g><path fill="#f69ed6" d="M 344.058594 197.136719 L 380.152344 187.132812 L 388.640625 92.007812 L 344.058594 92.007812 Z M 344.058594 197.136719 " fill-opacity="1" fill-rule="nonzero"/><path fill="#eceff1" d="M 344.058594 133.300781 L 325.988281 133.300781 L 324.742188 119.316406 L 344.058594 119.316406 L 344.058594 105.664062 L 309.820312 105.664062 L 310.144531 109.324219 L 313.5 146.953125 L 344.058594 146.953125 Z M 344.058594 168.757812 L 343.996094 168.773438 L 328.792969 164.664062 L 327.816406 153.773438 L 314.113281 153.773438 L 316.027344 175.214844 L 343.996094 182.976562 L 344.058594 182.960938 Z M 344.058594 168.757812 " fill-opacity="1" fill-rule="nonzero"/><path fill="#ffffff" d="M 344.011719 133.300781 L 344.011719 146.953125 L 360.824219 146.953125 L 359.238281 164.660156 L 344.007812 168.769531 L 344.007812 182.972656 L 371.996094 175.214844 L 372.203125 172.90625 L 375.414062 136.957031 L 375.75 133.292969 L 372.070312 133.292969 Z M 344.011719 105.664062 L 344.011719 119.316406 L 376.992188 119.316406 L 377.265625 116.246094 L 377.886719 109.324219 L 378.214844 105.660156 Z M 344.011719 105.664062 " fill-opacity="1" fill-rule="nonzero"/><g clip-path="url(#ca367334f4)"><path fill="#d80d68" d="M 558.246094 82.316406 L 449.671875 82.316406 L 459.25 190.890625 L 503.957031 203.664062 L 548.664062 190.890625 Z M 558.246094 82.316406 " fill-opacity="1" fill-rule="nonzero"/></g><path fill="#f75e8d" d="M 503.957031 91.898438 L 503.957031 193.765625 L 539.722656 183.546875 L 547.707031 91.898438 Z M 503.957031 91.898438 " fill-opacity="1" fill-rule="nonzero"/><path fill="#ffffff" d="M 533.019531 107.863281 L 503.957031 107.863281 L 503.957031 120.636719 L 519.605469 120.636719 L 518.648438 133.410156 L 503.957031 133.410156 L 503.957031 146.183594 L 518.007812 146.183594 L 517.050781 160.554688 L 503.957031 165.023438 L 503.957031 178.4375 L 529.1875 170.136719 L 531.421875 133.410156 Z M 533.019531 107.863281 " fill-opacity="1" fill-rule="nonzero"/><path fill="#eeeeee" d="M 503.957031 107.863281 L 503.957031 120.636719 L 475.535156 120.636719 L 474.578125 107.863281 Z M 489.269531 133.410156 L 489.90625 146.183594 L 503.957031 146.183594 L 503.957031 133.410156 Z M 490.546875 152.570312 L 477.773438 152.570312 L 478.730469 170.136719 L 503.957031 178.4375 L 503.957031 165.023438 L 490.863281 160.554688 Z M 490.546875 152.570312 " fill-opacity="1" fill-rule="nonzero"/><g clip-path="url(#c9858d0895)"><path fill="#f69ed6" d="M 614.34375 78.5 C 613.09375 78.5 611.90625 79.039062 611.078125 79.972656 C 610.253906 80.910156 609.867188 82.15625 610.023438 83.398438 L 621.636719 176.324219 C 621.820312 177.769531 622.710938 179.027344 624.011719 179.679688 L 670.476562 202.910156 C 671.699219 203.523438 673.144531 203.523438 674.371094 202.910156 L 720.832031 179.679688 C 722.136719 179.027344 723.027344 177.769531 723.207031 176.324219 L 734.824219 83.398438 C 734.980469 82.15625 734.59375 80.910156 733.765625 79.972656 C 732.941406 79.039062 731.75 78.5 730.5 78.5 Z M 614.34375 78.5 " fill-opacity="1" fill-rule="nonzero"/></g><path fill="#ffffff" d="M 663.710938 95.925781 C 666.117188 95.925781 668.066406 97.875 668.066406 100.28125 L 668.066406 175.78125 C 668.066406 177.335938 667.238281 178.769531 665.898438 179.550781 C 664.554688 180.332031 662.898438 180.335938 661.550781 179.566406 L 641.222656 167.949219 C 639.132812 166.757812 638.40625 164.09375 639.601562 162.007812 C 640.792969 159.917969 643.457031 159.191406 645.542969 160.386719 L 659.355469 168.277344 L 659.355469 100.28125 C 659.355469 97.875 661.304688 95.925781 663.710938 95.925781 Z M 663.710938 95.925781 " fill-opacity="1" fill-rule="evenodd"/><path fill="#ffffff" d="M 676.777344 100.28125 C 676.777344 97.875 678.730469 95.925781 681.132812 95.925781 L 710.171875 95.925781 C 712.578125 95.925781 714.53125 97.875 714.53125 100.28125 C 714.53125 102.6875 712.578125 104.636719 710.171875 104.636719 L 685.488281 104.636719 L 685.488281 132.601562 L 706.324219 127.972656 C 707.683594 127.671875 709.101562 128.035156 710.144531 128.953125 C 711.191406 129.871094 711.734375 131.234375 711.609375 132.617188 L 708.703125 164.5625 C 708.566406 166.0625 707.664062 167.390625 706.3125 168.0625 L 683.082031 179.679688 C 680.929688 180.753906 678.3125 179.882812 677.238281 177.730469 C 676.164062 175.578125 677.035156 172.960938 679.1875 171.886719 L 700.246094 161.355469 L 702.390625 137.769531 L 682.078125 142.285156 C 680.789062 142.570312 679.441406 142.257812 678.410156 141.429688 C 677.378906 140.601562 676.777344 139.351562 676.777344 138.03125 Z M 676.777344 100.28125 " fill-opacity="1" fill-rule="evenodd"/><g clip-path="url(#8e7f85de58)"><path fill="#d80d68" d="M 457.242188 272.519531 C 456.125 272.136719 454.996094 271.78125 453.859375 271.453125 C 454.050781 270.675781 454.226562 269.902344 454.382812 269.148438 C 456.941406 256.710938 455.269531 246.695312 449.546875 243.398438 C 444.066406 240.234375 435.097656 243.53125 426.039062 251.414062 C 425.144531 252.195312 424.273438 252.996094 423.421875 253.816406 C 422.851562 253.269531 422.269531 252.734375 421.679688 252.207031 C 412.1875 243.78125 402.671875 240.226562 396.960938 243.535156 C 391.480469 246.707031 389.859375 256.125 392.164062 267.90625 C 392.394531 269.074219 392.652344 270.234375 392.941406 271.390625 C 391.59375 271.773438 390.292969 272.179688 389.050781 272.613281 C 377.921875 276.492188 370.8125 282.574219 370.8125 288.882812 C 370.8125 295.394531 378.445312 301.929688 390.035156 305.890625 C 390.976562 306.210938 391.921875 306.507812 392.878906 306.78125 C 392.566406 308.023438 392.292969 309.277344 392.050781 310.535156 C 389.855469 322.113281 391.570312 331.308594 397.035156 334.457031 C 402.679688 337.714844 412.148438 334.367188 421.375 326.304688 C 422.121094 325.652344 422.851562 324.976562 423.566406 324.285156 C 424.488281 325.175781 425.4375 326.039062 426.40625 326.878906 C 435.34375 334.566406 444.164062 337.667969 449.625 334.507812 C 455.261719 331.246094 457.09375 321.367188 454.714844 309.351562 C 454.527344 308.410156 454.320312 307.472656 454.085938 306.542969 C 454.75 306.34375 455.402344 306.140625 456.039062 305.929688 C 468.089844 301.9375 475.933594 295.484375 475.933594 288.882812 C 475.933594 282.550781 468.59375 276.429688 457.242188 272.519531 Z M 454.628906 301.667969 C 454.054688 301.859375 453.464844 302.042969 452.863281 302.21875 C 451.53125 298.007812 449.738281 293.53125 447.539062 288.902344 C 449.636719 284.386719 451.363281 279.964844 452.65625 275.78125 C 453.730469 276.09375 454.773438 276.421875 455.78125 276.765625 C 465.507812 280.117188 471.441406 285.066406 471.441406 288.882812 C 471.441406 292.945312 465.035156 298.21875 454.628906 301.667969 Z M 450.3125 310.222656 C 451.363281 315.535156 451.511719 320.339844 450.816406 324.097656 C 450.191406 327.472656 448.929688 329.722656 447.375 330.621094 C 444.0625 332.539062 436.976562 330.046875 429.335938 323.472656 C 428.433594 322.695312 427.550781 321.890625 426.695312 321.0625 C 429.65625 317.824219 432.617188 314.058594 435.503906 309.875 C 440.585938 309.425781 445.386719 308.6875 449.742188 307.679688 C 449.953125 308.523438 450.140625 309.371094 450.3125 310.222656 Z M 406.652344 330.292969 C 403.414062 331.433594 400.835938 331.46875 399.277344 330.570312 C 395.960938 328.65625 394.585938 321.273438 396.464844 311.371094 C 396.6875 310.199219 396.945312 309.039062 397.230469 307.882812 C 401.539062 308.835938 406.304688 309.519531 411.398438 309.933594 C 414.304688 314.023438 417.351562 317.785156 420.421875 321.082031 C 419.769531 321.710938 419.101562 322.328125 418.417969 322.925781 C 414.339844 326.488281 410.253906 329.019531 406.652344 330.292969 Z M 391.488281 301.644531 C 386.363281 299.890625 382.128906 297.613281 379.226562 295.128906 C 376.621094 292.898438 375.304688 290.679688 375.304688 288.882812 C 375.304688 285.054688 381.011719 280.171875 390.527344 276.851562 C 391.683594 276.449219 392.894531 276.070312 394.148438 275.714844 C 395.460938 279.992188 397.1875 284.46875 399.269531 288.992188 C 397.160156 293.582031 395.410156 298.125 394.082031 302.457031 C 393.210938 302.207031 392.347656 301.933594 391.488281 301.644531 Z M 396.570312 267.042969 C 394.59375 256.949219 395.90625 249.332031 399.210938 247.421875 C 402.726562 245.386719 410.503906 248.289062 418.699219 255.566406 C 419.234375 256.042969 419.757812 256.527344 420.277344 257.023438 C 417.222656 260.300781 414.203125 264.035156 411.320312 268.105469 C 406.378906 268.5625 401.644531 269.296875 397.292969 270.285156 C 397.027344 269.210938 396.785156 268.128906 396.570312 267.046875 Z M 441.914062 278.242188 C 440.886719 276.464844 439.820312 274.714844 438.71875 272.984375 C 442.070312 273.410156 445.285156 273.972656 448.304688 274.660156 C 447.398438 277.5625 446.269531 280.597656 444.9375 283.710938 C 443.96875 281.867188 442.957031 280.042969 441.914062 278.242188 Z M 423.421875 260.230469 C 425.496094 262.476562 427.570312 264.980469 429.609375 267.699219 C 425.46875 267.503906 421.324219 267.503906 417.183594 267.695312 C 419.226562 265.003906 421.320312 262.5 423.421875 260.230469 Z M 404.8125 278.273438 C 403.78125 280.0625 402.792969 281.875 401.847656 283.707031 C 400.539062 280.605469 399.417969 277.558594 398.507812 274.613281 C 401.503906 273.941406 404.703125 273.390625 408.035156 272.976562 C 406.921875 274.714844 405.847656 276.480469 404.8125 278.273438 Z M 408.132812 305.105469 C 404.6875 304.722656 401.441406 304.203125 398.445312 303.550781 C 399.371094 300.550781 400.515625 297.4375 401.851562 294.269531 C 402.800781 296.105469 403.796875 297.917969 404.832031 299.707031 C 405.898438 301.546875 407 303.351562 408.132812 305.105469 Z M 423.546875 317.847656 C 421.417969 315.550781 419.296875 313.011719 417.222656 310.28125 C 419.234375 310.359375 421.289062 310.398438 423.371094 310.398438 C 425.515625 310.398438 427.632812 310.351562 429.71875 310.257812 C 427.671875 313.039062 425.605469 315.582031 423.546875 317.847656 Z M 444.980469 294.109375 C 446.386719 297.308594 447.570312 300.410156 448.511719 303.355469 C 445.464844 304.050781 442.171875 304.609375 438.703125 305.027344 C 439.816406 303.265625 440.890625 301.480469 441.933594 299.679688 C 442.988281 297.84375 444.007812 295.988281 444.980469 294.109375 Z M 438.042969 297.433594 C 436.449219 300.199219 434.769531 302.914062 433 305.570312 C 429.796875 305.796875 426.585938 305.910156 423.371094 305.910156 C 420.101562 305.910156 416.917969 305.804688 413.855469 305.609375 C 412.039062 302.957031 410.328125 300.238281 408.71875 297.457031 C 407.117188 294.691406 405.621094 291.867188 404.234375 288.988281 C 405.617188 286.109375 407.109375 283.28125 408.703125 280.515625 C 410.300781 277.746094 412 275.039062 413.800781 272.402344 C 416.925781 272.164062 420.132812 272.042969 423.371094 272.042969 C 426.628906 272.042969 429.835938 272.164062 432.960938 272.402344 C 434.746094 275.039062 436.433594 277.738281 438.027344 280.492188 C 439.628906 283.253906 441.140625 286.066406 442.558594 288.925781 C 441.15625 291.8125 439.648438 294.652344 438.042969 297.433594 Z M 447.304688 247.289062 C 450.824219 249.316406 452.195312 257.503906 449.984375 268.238281 C 449.839844 268.925781 449.683594 269.621094 449.511719 270.328125 C 445.148438 269.324219 440.414062 268.574219 435.457031 268.109375 C 432.566406 263.996094 429.574219 260.257812 426.570312 257.019531 C 427.355469 256.261719 428.164062 255.519531 428.988281 254.800781 C 436.746094 248.046875 444 245.382812 447.304688 247.289062 Z M 423.371094 279.496094 C 428.558594 279.496094 432.757812 283.699219 432.757812 288.882812 C 432.757812 294.066406 428.558594 298.269531 423.371094 298.269531 C 418.1875 298.269531 413.984375 294.066406 413.984375 288.882812 C 413.984375 283.699219 418.1875 279.496094 423.371094 279.496094 Z M 423.371094 279.496094 " fill-opacity="1" fill-rule="nonzero"/></g><g clip-path="url(#b0324c81d4)"><path fill="#f69ed6" d="M 653.398438 324.738281 C 653.398438 332.035156 647.484375 337.949219 640.1875 337.949219 L 571.476562 337.949219 C 564.183594 337.949219 558.265625 332.035156 558.265625 324.738281 L 558.265625 256.027344 C 558.265625 248.730469 564.183594 242.816406 571.476562 242.816406 L 640.1875 242.816406 C 647.484375 242.816406 653.398438 248.730469 653.398438 256.027344 Z M 653.398438 324.738281 " fill-opacity="1" fill-rule="nonzero"/></g><path fill="#ffffff" d="M 629.695312 294.609375 C 627.976562 292.230469 625.492188 290.59375 622.296875 289.722656 C 622.296875 289.722656 624.992188 288.742188 627.421875 285.097656 C 628.875 282.773438 629.617188 279.96875 629.617188 276.695312 C 629.617188 271.011719 627.554688 266.652344 623.433594 263.664062 C 619.308594 260.679688 614.660156 258.671875 606.757812 258.671875 L 582.046875 258.671875 L 582.046875 322.09375 L 609.613281 322.09375 C 617.089844 322.039062 622.71875 320.429688 626.550781 317.335938 C 630.355469 314.191406 632.257812 309.542969 632.257812 303.332031 C 632.257812 299.894531 631.414062 296.988281 629.695312 294.609375 Z M 597.90625 269.242188 C 597.90625 269.242188 608.925781 269.242188 609.136719 269.242188 C 613.152344 269.242188 616.402344 272.492188 616.402344 276.507812 C 616.402344 280.523438 613.152344 283.777344 609.136719 283.777344 C 608.925781 283.777344 597.90625 283.777344 597.90625 283.777344 Z M 611.117188 311.523438 L 597.90625 311.523438 L 597.90625 295.667969 L 611.117188 295.667969 C 615.503906 295.667969 619.046875 299.207031 619.046875 303.59375 C 619.046875 307.980469 615.503906 311.523438 611.117188 311.523438 Z M 611.117188 311.523438 " fill-opacity="1" fill-rule="nonzero"/><g clip-path="url(#aae1127c3a)"><path fill="#f69ed6" d="M 487.023438 385.976562 L 462.089844 399.773438 C 461.152344 400.289062 460.578125 401.242188 460.578125 402.273438 L 460.578125 429.882812 C 460.578125 430.914062 461.152344 431.867188 462.089844 432.382812 L 487.03125 446.191406 C 487.960938 446.703125 489.113281 446.703125 490.042969 446.191406 L 514.980469 432.382812 C 515.90625 431.867188 516.480469 430.914062 516.480469 429.882812 L 516.480469 402.273438 C 516.480469 401.242188 515.90625 400.292969 514.96875 399.773438 L 490.039062 385.976562 C 489.570312 385.71875 489.046875 385.589844 488.527344 385.589844 C 488.003906 385.589844 487.488281 385.71875 487.019531 385.976562 M 615.328125 410.832031 L 611.167969 413.128906 C 611.011719 413.214844 610.921875 413.375 610.921875 413.546875 L 610.921875 418.148438 C 610.921875 418.324219 611.015625 418.480469 611.167969 418.566406 L 615.328125 420.867188 C 615.484375 420.957031 615.671875 420.957031 615.828125 420.867188 L 619.984375 418.566406 C 620.140625 418.480469 620.234375 418.324219 620.234375 418.148438 L 620.234375 413.546875 C 620.234375 413.375 620.140625 413.214844 619.980469 413.128906 L 615.824219 410.832031 C 615.746094 410.785156 615.660156 410.765625 615.574219 410.765625 C 615.488281 410.765625 615.402344 410.785156 615.328125 410.832031 " fill-opacity="1" fill-rule="nonzero"/></g><g clip-path="url(#772f81a9ce)"><path fill="#ffffff" d="M 581.277344 356.714844 L 569.136719 349.941406 C 568.757812 349.726562 568.289062 349.734375 567.914062 349.957031 C 567.535156 350.179688 567.300781 350.582031 567.300781 351.019531 L 567.296875 391.9375 L 556.101562 385.742188 C 555.636719 385.484375 555.113281 385.355469 554.59375 385.355469 C 554.074219 385.355469 553.550781 385.484375 553.082031 385.742188 L 553.089844 385.742188 L 528.152344 399.539062 C 527.21875 400.054688 526.644531 401.007812 526.644531 402.035156 L 526.644531 429.644531 C 526.644531 430.675781 527.21875 431.628906 528.152344 432.144531 L 553.09375 445.953125 C 554.023438 446.464844 555.175781 446.464844 556.105469 445.953125 L 581.042969 432.144531 C 581.96875 431.632812 582.542969 430.675781 582.542969 429.644531 L 582.542969 358.871094 C 582.542969 357.976562 582.054688 357.152344 581.277344 356.714844 Z M 566.617188 423.257812 L 555.285156 429.535156 C 554.863281 429.765625 554.339844 429.765625 553.917969 429.535156 L 542.578125 423.257812 C 542.148438 423.023438 541.886719 422.585938 541.886719 422.117188 L 541.886719 409.566406 C 541.886719 409.097656 542.148438 408.667969 542.574219 408.429688 L 553.910156 402.15625 L 553.90625 402.15625 C 554.121094 402.039062 554.355469 401.984375 554.59375 401.984375 C 554.832031 401.984375 555.066406 402.046875 555.277344 402.15625 L 566.613281 408.429688 C 567.039062 408.667969 567.296875 409.105469 567.296875 409.570312 L 567.296875 422.125 C 567.296875 422.585938 567.039062 423.023438 566.617188 423.257812 Z M 566.617188 423.257812 " fill-opacity="1" fill-rule="nonzero"/></g><g clip-path="url(#a4b355155b)"><path fill="#d80d68" d="M 487.023438 385.976562 L 460.578125 429.882812 C 460.578125 430.914062 461.152344 431.867188 462.089844 432.382812 L 487.03125 446.191406 C 487.960938 446.703125 489.113281 446.703125 490.042969 446.191406 L 516.480469 402.273438 C 516.480469 401.242188 515.90625 400.292969 514.96875 399.773438 L 490.039062 385.976562 C 489.570312 385.71875 489.046875 385.589844 488.527344 385.589844 C 488.003906 385.589844 487.488281 385.71875 487.019531 385.976562 " fill-opacity="1" fill-rule="nonzero"/><path fill="#f75e8d" d="M 487.023438 385.976562 L 462.089844 399.773438 C 461.152344 400.289062 460.578125 401.242188 460.578125 402.273438 L 487.023438 446.191406 C 487.953125 446.703125 489.109375 446.703125 490.039062 446.191406 L 514.976562 432.382812 C 515.90625 431.867188 516.480469 430.914062 516.480469 429.882812 L 490.039062 385.976562 C 489.570312 385.71875 489.046875 385.589844 488.527344 385.589844 C 488.003906 385.589844 487.488281 385.71875 487.019531 385.976562 " fill-opacity="1" fill-rule="nonzero"/></g><g clip-path="url(#d49a8af2e2)"><path fill="#ffffff" d="M 642.015625 399.539062 L 617.085938 385.742188 C 616.617188 385.484375 616.09375 385.355469 615.574219 385.355469 C 615.058594 385.355469 614.535156 385.484375 614.066406 385.742188 L 614.070312 385.742188 L 589.132812 399.539062 C 588.203125 400.054688 587.625 401.027344 587.625 402.097656 L 587.625 429.59375 C 587.625 430.65625 588.203125 431.636719 589.132812 432.152344 L 614.074219 445.957031 C 615.011719 446.476562 616.15625 446.476562 617.089844 445.957031 L 628.589844 439.589844 C 629.640625 439.007812 629.636719 437.496094 628.578125 436.917969 L 603.558594 423.261719 C 603.136719 423.023438 602.871094 422.582031 602.871094 422.105469 L 602.871094 409.570312 C 602.871094 409.105469 603.125 408.671875 603.53125 408.449219 L 614.890625 402.167969 L 614.882812 402.167969 C 615.097656 402.050781 615.332031 401.996094 615.570312 401.996094 C 615.808594 401.996094 616.042969 402.054688 616.257812 402.167969 L 627.613281 408.453125 C 628.019531 408.675781 628.273438 409.109375 628.273438 409.578125 L 628.273438 419.800781 C 628.273438 420.238281 628.507812 420.644531 628.890625 420.863281 C 629.269531 421.078125 629.738281 421.078125 630.121094 420.859375 L 642.304688 413.78125 C 643.058594 413.34375 643.527344 412.535156 643.527344 411.660156 L 643.527344 402.105469 C 643.527344 401.035156 642.945312 400.054688 642.015625 399.539062 Z M 453.988281 399.539062 L 429.054688 385.742188 C 428.589844 385.484375 428.066406 385.355469 427.546875 385.355469 C 427.027344 385.355469 426.503906 385.484375 426.039062 385.742188 L 426.042969 385.742188 L 401.105469 399.539062 C 400.175781 400.054688 399.597656 401.027344 399.597656 402.097656 L 399.597656 440.03125 C 399.597656 440.46875 399.832031 440.875 400.210938 441.09375 C 400.59375 441.308594 401.058594 441.308594 401.441406 441.089844 L 413.628906 434.011719 C 414.378906 433.574219 414.84375 432.765625 414.84375 431.890625 L 414.84375 409.566406 C 414.84375 409.097656 415.097656 408.667969 415.503906 408.445312 L 426.859375 402.164062 C 427.074219 402.046875 427.308594 401.988281 427.546875 401.988281 C 427.785156 401.988281 428.019531 402.050781 428.234375 402.164062 L 439.589844 408.449219 C 439.996094 408.671875 440.25 409.105469 440.25 409.570312 L 440.25 431.894531 C 440.25 432.769531 440.714844 433.578125 441.472656 434.015625 L 453.65625 441.09375 C 454.039062 441.3125 454.507812 441.3125 454.886719 441.101562 C 455.261719 440.875 455.496094 440.46875 455.496094 440.03125 L 455.496094 402.101562 C 455.496094 401.035156 454.917969 400.054688 453.988281 399.539062 Z M 453.988281 399.539062 " fill-opacity="1" fill-rule="nonzero"/></g></svg>